  0
SECTION
  2
BLOCKS
  0
ENDSEC
  0
SECTION
  2
ENTITIES
  0
LINE
  8
0
 10
165
 20
165
 11
0
 21
165
  0
LINE
  8
0
 10
0
 20
165
 11
0
 21
0
  0
LINE
  8
0
 10
0
 20
0
 11
165
 21
0
  0
LINE
  8
0
 10
165
 20
0
 11
165
 21
165
  0
LINE
  8
0
 10
114
 20
144
 11
114
 21
156
  0
LINE
  8
0
 10
114
 20
156
 11
126
 21
156
  0
LINE
  8
0
 10
126
 20
156
 11
126
 21
144
  0
LINE
  8
0
 10
126
 20
144
 11
114
 21
144
  0
LINE
  8
0
 10
99
 20
144
 11
99
 21
156
  0
LINE
  8
0
 10
99
 20
156
 11
111
 21
156
  0
LINE
  8
0
 10
111
 20
156
 11
111
 21
144
  0
LINE
  8
0
 10
111
 20
144
 11
99
 21
144
  0
LINE
  8
0
 10
69
 20
144
 11
69
 21
156
  0
LINE
  8
0
 10
69
 20
156
 11
81
 21
156
  0
LINE
  8
0
 10
81
 20
156
 11
81
 21
144
  0
LINE
  8
0
 10
81
 20
144
 11
69
 21
144
  0
LINE
  8
0
 10
54
 20
144
 11
54
 21
156
  0
LINE
  8
0
 10
54
 20
156
 11
66
 21
156
  0
LINE
  8
0
 10
66
 20
156
 11
66
 21
144
  0
LINE
  8
0
 10
66
 20
144
 11
54
 21
144
  0
LINE
  8
0
 10
39
 20
144
 11
39
 21
156
  0
LINE
  8
0
 10
39
 20
156
 11
51
 21
156
  0
LINE
  8
0
 10
51
 20
156
 11
51
 21
144
  0
LINE
  8
0
 10
51
 20
144
 11
39
 21
144
  0
LINE
  8
0
 10
24
 20
144
 11
24
 21
156
  0
LINE
  8
0
 10
24
 20
156
 11
36
 21
156
  0
LINE
  8
0
 10
36
 20
156
 11
36
 21
144
  0
LINE
  8
0
 10
36
 20
144
 11
24
 21
144
  0
LINE
  8
0
 10
84
 20
144
 11
84
 21
156
  0
LINE
  8
0
 10
84
 20
156
 11
96
 21
156
  0
LINE
  8
0
 10
96
 20
156
 11
96
 21
144
  0
LINE
  8
0
 10
96
 20
144
 11
84
 21
144
  0
LINE
  8
0
 10
129
 20
144
 11
129
 21
156
  0
LINE
  8
0
 10
129
 20
156
 11
141
 21
156
  0
LINE
  8
0
 10
141
 20
156
 11
141
 21
144
  0
LINE
  8
0
 10
141
 20
144
 11
129
 21
144
  0
LINE
  8
0
 10
14.8285
 20
148.258
 11
14.6586
 21
148.284
  0
LINE
  8
0
 10
14.6586
 20
148.284
 11
14.492
 21
148.325
  0
LINE
  8
0
 10
14.492
 20
148.325
 11
14.3303
 21
148.383
  0
LINE
  8
0
 10
14.3303
 20
148.383
 11
14.175
 21
148.457
  0
LINE
  8
0
 10
14.175
 20
148.457
 11
14.0277
 21
148.545
  0
LINE
  8
0
 10
14.0277
 20
148.545
 11
13.8898
 21
148.647
  0
LINE
  8
0
 10
13.8898
 20
148.647
 11
13.7626
 21
148.763
  0
LINE
  8
0
 10
13.7626
 20
148.763
 11
13.6472
 21
148.89
  0
LINE
  8
0
 10
13.6472
 20
148.89
 11
13.5449
 21
149.028
  0
LINE
  8
0
 10
13.5449
 20
149.028
 11
13.4566
 21
149.175
  0
LINE
  8
0
 10
13.4566
 20
149.175
 11
13.3832
 21
149.33
  0
LINE
  8
0
 10
13.3832
 20
149.33
 11
13.3253
 21
149.492
  0
LINE
  8
0
 10
13.3253
 20
149.492
 11
13.2836
 21
149.659
  0
LINE
  8
0
 10
13.2836
 20
149.659
 11
13.2584
 21
149.828
  0
LINE
  8
0
 10
13.2584
 20
149.828
 11
13.25
 21
150
  0
LINE
  8
0
 10
13.25
 20
150
 11
13.2584
 21
150.172
  0
LINE
  8
0
 10
13.2584
 20
150.172
 11
13.2836
 21
150.341
  0
LINE
  8
0
 10
13.2836
 20
150.341
 11
13.3253
 21
150.508
  0
LINE
  8
0
 10
13.3253
 20
150.508
 11
13.3832
 21
150.67
  0
LINE
  8
0
 10
13.3832
 20
150.67
 11
13.4566
 21
150.825
  0
LINE
  8
0
 10
13.4566
 20
150.825
 11
13.5449
 21
150.972
  0
LINE
  8
0
 10
13.5449
 20
150.972
 11
13.6472
 21
151.11
  0
LINE
  8
0
 10
13.6472
 20
151.11
 11
13.7626
 21
151.237
  0
LINE
  8
0
 10
13.7626
 20
151.237
 11
13.8898
 21
151.353
  0
LINE
  8
0
 10
13.8898
 20
151.353
 11
14.0277
 21
151.455
  0
LINE
  8
0
 10
14.0277
 20
151.455
 11
14.175
 21
151.543
  0
LINE
  8
0
 10
14.175
 20
151.543
 11
14.3303
 21
151.617
  0
LINE
  8
0
 10
14.3303
 20
151.617
 11
14.492
 21
151.675
  0
LINE
  8
0
 10
14.492
 20
151.675
 11
14.6586
 21
151.716
  0
LINE
  8
0
 10
14.6586
 20
151.716
 11
14.8285
 21
151.742
  0
LINE
  8
0
 10
14.8285
 20
151.742
 11
15
 21
151.75
  0
LINE
  8
0
 10
15
 20
151.75
 11
15.1715
 21
151.742
  0
LINE
  8
0
 10
15.1715
 20
151.742
 11
15.3414
 21
151.716
  0
LINE
  8
0
 10
15.3414
 20
151.716
 11
15.508
 21
151.675
  0
LINE
  8
0
 10
15.508
 20
151.675
 11
15.6697
 21
151.617
  0
LINE
  8
0
 10
15.6697
 20
151.617
 11
15.8249
 21
151.543
  0
LINE
  8
0
 10
15.8249
 20
151.543
 11
15.9722
 21
151.455
  0
LINE
  8
0
 10
15.9722
 20
151.455
 11
16.1102
 21
151.353
  0
LINE
  8
0
 10
16.1102
 20
151.353
 11
16.2374
 21
151.237
  0
LINE
  8
0
 10
16.2374
 20
151.237
 11
16.3528
 21
151.11
  0
LINE
  8
0
 10
16.3528
 20
151.11
 11
16.4551
 21
150.972
  0
LINE
  8
0
 10
16.4551
 20
150.972
 11
16.5434
 21
150.825
  0
LINE
  8
0
 10
16.5434
 20
150.825
 11
16.6168
 21
150.67
  0
LINE
  8
0
 10
16.6168
 20
150.67
 11
16.6746
 21
150.508
  0
LINE
  8
0
 10
16.6746
 20
150.508
 11
16.7164
 21
150.341
  0
LINE
  8
0
 10
16.7164
 20
150.341
 11
16.7416
 21
150.172
  0
LINE
  8
0
 10
16.7416
 20
150.172
 11
16.75
 21
150
  0
LINE
  8
0
 10
16.75
 20
150
 11
16.7416
 21
149.828
  0
LINE
  8
0
 10
16.7416
 20
149.828
 11
16.7164
 21
149.659
  0
LINE
  8
0
 10
16.7164
 20
149.659
 11
16.6746
 21
149.492
  0
LINE
  8
0
 10
16.6746
 20
149.492
 11
16.6168
 21
149.33
  0
LINE
  8
0
 10
16.6168
 20
149.33
 11
16.5434
 21
149.175
  0
LINE
  8
0
 10
16.5434
 20
149.175
 11
16.4551
 21
149.028
  0
LINE
  8
0
 10
16.4551
 20
149.028
 11
16.3528
 21
148.89
  0
LINE
  8
0
 10
16.3528
 20
148.89
 11
16.2374
 21
148.763
  0
LINE
  8
0
 10
16.2374
 20
148.763
 11
16.1102
 21
148.647
  0
LINE
  8
0
 10
16.1102
 20
148.647
 11
15.9722
 21
148.545
  0
LINE
  8
0
 10
15.9722
 20
148.545
 11
15.8249
 21
148.457
  0
LINE
  8
0
 10
15.8249
 20
148.457
 11
15.6697
 21
148.383
  0
LINE
  8
0
 10
15.6697
 20
148.383
 11
15.508
 21
148.325
  0
LINE
  8
0
 10
15.508
 20
148.325
 11
15.3414
 21
148.284
  0
LINE
  8
0
 10
15.3414
 20
148.284
 11
15.1715
 21
148.258
  0
LINE
  8
0
 10
15.1715
 20
148.258
 11
15
 21
148.25
  0
LINE
  8
0
 10
15
 20
148.25
 11
14.8285
 21
148.258
  0
LINE
  8
0
 10
149.828
 20
148.258
 11
149.659
 21
148.284
  0
LINE
  8
0
 10
149.659
 20
148.284
 11
149.492
 21
148.325
  0
LINE
  8
0
 10
149.492
 20
148.325
 11
149.33
 21
148.383
  0
LINE
  8
0
 10
149.33
 20
148.383
 11
149.175
 21
148.457
  0
LINE
  8
0
 10
149.175
 20
148.457
 11
149.028
 21
148.545
  0
LINE
  8
0
 10
149.028
 20
148.545
 11
148.89
 21
148.647
  0
LINE
  8
0
 10
148.89
 20
148.647
 11
148.763
 21
148.763
  0
LINE
  8
0
 10
148.763
 20
148.763
 11
148.647
 21
148.89
  0
LINE
  8
0
 10
148.647
 20
148.89
 11
148.545
 21
149.028
  0
LINE
  8
0
 10
148.545
 20
149.028
 11
148.457
 21
149.175
  0
LINE
  8
0
 10
148.457
 20
149.175
 11
148.383
 21
149.33
  0
LINE
  8
0
 10
148.383
 20
149.33
 11
148.325
 21
149.492
  0
LINE
  8
0
 10
148.325
 20
149.492
 11
148.284
 21
149.659
  0
LINE
  8
0
 10
148.284
 20
149.659
 11
148.258
 21
149.828
  0
LINE
  8
0
 10
148.258
 20
149.828
 11
148.25
 21
150
  0
LINE
  8
0
 10
148.25
 20
150
 11
148.258
 21
150.172
  0
LINE
  8
0
 10
148.258
 20
150.172
 11
148.284
 21
150.341
  0
LINE
  8
0
 10
148.284
 20
150.341
 11
148.325
 21
150.508
  0
LINE
  8
0
 10
148.325
 20
150.508
 11
148.383
 21
150.67
  0
LINE
  8
0
 10
148.383
 20
150.67
 11
148.457
 21
150.825
  0
LINE
  8
0
 10
148.457
 20
150.825
 11
148.545
 21
150.972
  0
LINE
  8
0
 10
148.545
 20
150.972
 11
148.647
 21
151.11
  0
LINE
  8
0
 10
148.647
 20
151.11
 11
148.763
 21
151.237
  0
LINE
  8
0
 10
148.763
 20
151.237
 11
148.89
 21
151.353
  0
LINE
  8
0
 10
148.89
 20
151.353
 11
149.028
 21
151.455
  0
LINE
  8
0
 10
149.028
 20
151.455
 11
149.175
 21
151.543
  0
LINE
  8
0
 10
149.175
 20
151.543
 11
149.33
 21
151.617
  0
LINE
  8
0
 10
149.33
 20
151.617
 11
149.492
 21
151.675
  0
LINE
  8
0
 10
149.492
 20
151.675
 11
149.659
 21
151.716
  0
LINE
  8
0
 10
149.659
 20
151.716
 11
149.828
 21
151.742
  0
LINE
  8
0
 10
149.828
 20
151.742
 11
150
 21
151.75
  0
LINE
  8
0
 10
150
 20
151.75
 11
150.172
 21
151.742
  0
LINE
  8
0
 10
150.172
 20
151.742
 11
150.341
 21
151.716
  0
LINE
  8
0
 10
150.341
 20
151.716
 11
150.508
 21
151.675
  0
LINE
  8
0
 10
150.508
 20
151.675
 11
150.67
 21
151.617
  0
LINE
  8
0
 10
150.67
 20
151.617
 11
150.825
 21
151.543
  0
LINE
  8
0
 10
150.825
 20
151.543
 11
150.972
 21
151.455
  0
LINE
  8
0
 10
150.972
 20
151.455
 11
151.11
 21
151.353
  0
LINE
  8
0
 10
151.11
 20
151.353
 11
151.237
 21
151.237
  0
LINE
  8
0
 10
151.237
 20
151.237
 11
151.353
 21
151.11
  0
LINE
  8
0
 10
151.353
 20
151.11
 11
151.455
 21
150.972
  0
LINE
  8
0
 10
151.455
 20
150.972
 11
151.543
 21
150.825
  0
LINE
  8
0
 10
151.543
 20
150.825
 11
151.617
 21
150.67
  0
LINE
  8
0
 10
151.617
 20
150.67
 11
151.675
 21
150.508
  0
LINE
  8
0
 10
151.675
 20
150.508
 11
151.716
 21
150.341
  0
LINE
  8
0
 10
151.716
 20
150.341
 11
151.742
 21
150.172
  0
LINE
  8
0
 10
151.742
 20
150.172
 11
151.75
 21
150
  0
LINE
  8
0
 10
151.75
 20
150
 11
151.742
 21
149.828
  0
LINE
  8
0
 10
151.742
 20
149.828
 11
151.716
 21
149.659
  0
LINE
  8
0
 10
151.716
 20
149.659
 11
151.675
 21
149.492
  0
LINE
  8
0
 10
151.675
 20
149.492
 11
151.617
 21
149.33
  0
LINE
  8
0
 10
151.617
 20
149.33
 11
151.543
 21
149.175
  0
LINE
  8
0
 10
151.543
 20
149.175
 11
151.455
 21
149.028
  0
LINE
  8
0
 10
151.455
 20
149.028
 11
151.353
 21
148.89
  0
LINE
  8
0
 10
151.353
 20
148.89
 11
151.237
 21
148.763
  0
LINE
  8
0
 10
151.237
 20
148.763
 11
151.11
 21
148.647
  0
LINE
  8
0
 10
151.11
 20
148.647
 11
150.972
 21
148.545
  0
LINE
  8
0
 10
150.972
 20
148.545
 11
150.825
 21
148.457
  0
LINE
  8
0
 10
150.825
 20
148.457
 11
150.67
 21
148.383
  0
LINE
  8
0
 10
150.67
 20
148.383
 11
150.508
 21
148.325
  0
LINE
  8
0
 10
150.508
 20
148.325
 11
150.341
 21
148.284
  0
LINE
  8
0
 10
150.341
 20
148.284
 11
150.172
 21
148.258
  0
LINE
  8
0
 10
150.172
 20
148.258
 11
150
 21
148.25
  0
LINE
  8
0
 10
150
 20
148.25
 11
149.828
 21
148.258
  0
LINE
  8
0
 10
84
 20
129
 11
84
 21
141
  0
LINE
  8
0
 10
84
 20
141
 11
96
 21
141
  0
LINE
  8
0
 10
96
 20
141
 11
96
 21
129
  0
LINE
  8
0
 10
96
 20
129
 11
84
 21
129
  0
LINE
  8
0
 10
69
 20
129
 11
69
 21
141
  0
LINE
  8
0
 10
69
 20
141
 11
81
 21
141
  0
LINE
  8
0
 10
81
 20
141
 11
81
 21
129
  0
LINE
  8
0
 10
81
 20
129
 11
69
 21
129
  0
LINE
  8
0
 10
9
 20
129
 11
9
 21
141
  0
LINE
  8
0
 10
9
 20
141
 11
21
 21
141
  0
LINE
  8
0
 10
21
 20
141
 11
21
 21
129
  0
LINE
  8
0
 10
21
 20
129
 11
9
 21
129
  0
LINE
  8
0
 10
24
 20
129
 11
24
 21
141
  0
LINE
  8
0
 10
24
 20
141
 11
36
 21
141
  0
LINE
  8
0
 10
36
 20
141
 11
36
 21
129
  0
LINE
  8
0
 10
36
 20
129
 11
24
 21
129
  0
LINE
  8
0
 10
144
 20
129
 11
144
 21
141
  0
LINE
  8
0
 10
144
 20
141
 11
156
 21
141
  0
LINE
  8
0
 10
156
 20
141
 11
156
 21
129
  0
LINE
  8
0
 10
156
 20
129
 11
144
 21
129
  0
LINE
  8
0
 10
129
 20
129
 11
129
 21
141
  0
LINE
  8
0
 10
129
 20
141
 11
141
 21
141
  0
LINE
  8
0
 10
141
 20
141
 11
141
 21
129
  0
LINE
  8
0
 10
141
 20
129
 11
129
 21
129
  0
LINE
  8
0
 10
39
 20
129
 11
39
 21
141
  0
LINE
  8
0
 10
39
 20
141
 11
51
 21
141
  0
LINE
  8
0
 10
51
 20
141
 11
51
 21
129
  0
LINE
  8
0
 10
51
 20
129
 11
39
 21
129
  0
LINE
  8
0
 10
114
 20
129
 11
114
 21
141
  0
LINE
  8
0
 10
114
 20
141
 11
126
 21
141
  0
LINE
  8
0
 10
126
 20
141
 11
126
 21
129
  0
LINE
  8
0
 10
126
 20
129
 11
114
 21
129
  0
LINE
  8
0
 10
99
 20
129
 11
99
 21
141
  0
LINE
  8
0
 10
99
 20
141
 11
111
 21
141
  0
LINE
  8
0
 10
111
 20
141
 11
111
 21
129
  0
LINE
  8
0
 10
111
 20
129
 11
99
 21
129
  0
LINE
  8
0
 10
54
 20
129
 11
54
 21
141
  0
LINE
  8
0
 10
54
 20
141
 11
66
 21
141
  0
LINE
  8
0
 10
66
 20
141
 11
66
 21
129
  0
LINE
  8
0
 10
66
 20
129
 11
54
 21
129
  0
LINE
  8
0
 10
114
 20
114
 11
114
 21
126
  0
LINE
  8
0
 10
114
 20
126
 11
126
 21
126
  0
LINE
  8
0
 10
126
 20
126
 11
126
 21
114
  0
LINE
  8
0
 10
126
 20
114
 11
114
 21
114
  0
LINE
  8
0
 10
99
 20
114
 11
99
 21
126
  0
LINE
  8
0
 10
99
 20
126
 11
111
 21
126
  0
LINE
  8
0
 10
111
 20
126
 11
111
 21
114
  0
LINE
  8
0
 10
111
 20
114
 11
99
 21
114
  0
LINE
  8
0
 10
54
 20
114
 11
54
 21
126
  0
LINE
  8
0
 10
54
 20
126
 11
66
 21
126
  0
LINE
  8
0
 10
66
 20
126
 11
66
 21
114
  0
LINE
  8
0
 10
66
 20
114
 11
54
 21
114
  0
LINE
  8
0
 10
24
 20
114
 11
24
 21
126
  0
LINE
  8
0
 10
24
 20
126
 11
36
 21
126
  0
LINE
  8
0
 10
36
 20
126
 11
36
 21
114
  0
LINE
  8
0
 10
36
 20
114
 11
24
 21
114
  0
LINE
  8
0
 10
9
 20
114
 11
9
 21
126
  0
LINE
  8
0
 10
9
 20
126
 11
21
 21
126
  0
LINE
  8
0
 10
21
 20
126
 11
21
 21
114
  0
LINE
  8
0
 10
21
 20
114
 11
9
 21
114
  0
LINE
  8
0
 10
129
 20
114
 11
129
 21
126
  0
LINE
  8
0
 10
129
 20
126
 11
141
 21
126
  0
LINE
  8
0
 10
141
 20
126
 11
141
 21
114
  0
LINE
  8
0
 10
141
 20
114
 11
129
 21
114
  0
LINE
  8
0
 10
144
 20
114
 11
144
 21
126
  0
LINE
  8
0
 10
144
 20
126
 11
156
 21
126
  0
LINE
  8
0
 10
156
 20
126
 11
156
 21
114
  0
LINE
  8
0
 10
156
 20
114
 11
144
 21
114
  0
LINE
  8
0
 10
39
 20
114
 11
39
 21
126
  0
LINE
  8
0
 10
39
 20
126
 11
51
 21
126
  0
LINE
  8
0
 10
51
 20
126
 11
51
 21
114
  0
LINE
  8
0
 10
51
 20
114
 11
39
 21
114
  0
LINE
  8
0
 10
69
 20
114
 11
69
 21
126
  0
LINE
  8
0
 10
69
 20
126
 11
81
 21
126
  0
LINE
  8
0
 10
81
 20
126
 11
81
 21
114
  0
LINE
  8
0
 10
81
 20
114
 11
69
 21
114
  0
LINE
  8
0
 10
84
 20
114
 11
84
 21
126
  0
LINE
  8
0
 10
84
 20
126
 11
96
 21
126
  0
LINE
  8
0
 10
96
 20
126
 11
96
 21
114
  0
LINE
  8
0
 10
96
 20
114
 11
84
 21
114
  0
LINE
  8
0
 10
24
 20
99
 11
24
 21
111
  0
LINE
  8
0
 10
24
 20
111
 11
36
 21
111
  0
LINE
  8
0
 10
36
 20
111
 11
36
 21
99
  0
LINE
  8
0
 10
36
 20
99
 11
24
 21
99
  0
LINE
  8
0
 10
144
 20
99
 11
144
 21
111
  0
LINE
  8
0
 10
144
 20
111
 11
156
 21
111
  0
LINE
  8
0
 10
156
 20
111
 11
156
 21
99
  0
LINE
  8
0
 10
156
 20
99
 11
144
 21
99
  0
LINE
  8
0
 10
129
 20
99
 11
129
 21
111
  0
LINE
  8
0
 10
129
 20
111
 11
141
 21
111
  0
LINE
  8
0
 10
141
 20
111
 11
141
 21
99
  0
LINE
  8
0
 10
141
 20
99
 11
129
 21
99
  0
LINE
  8
0
 10
39
 20
99
 11
39
 21
111
  0
LINE
  8
0
 10
39
 20
111
 11
51
 21
111
  0
LINE
  8
0
 10
51
 20
111
 11
51
 21
99
  0
LINE
  8
0
 10
51
 20
99
 11
39
 21
99
  0
LINE
  8
0
 10
114
 20
99
 11
114
 21
111
  0
LINE
  8
0
 10
114
 20
111
 11
126
 21
111
  0
LINE
  8
0
 10
126
 20
111
 11
126
 21
99
  0
LINE
  8
0
 10
126
 20
99
 11
114
 21
99
  0
LINE
  8
0
 10
9
 20
99
 11
9
 21
111
  0
LINE
  8
0
 10
9
 20
111
 11
21
 21
111
  0
LINE
  8
0
 10
21
 20
111
 11
21
 21
99
  0
LINE
  8
0
 10
21
 20
99
 11
9
 21
99
  0
LINE
  8
0
 10
99
 20
99
 11
99
 21
111
  0
LINE
  8
0
 10
99
 20
111
 11
111
 21
111
  0
LINE
  8
0
 10
111
 20
111
 11
111
 21
99
  0
LINE
  8
0
 10
111
 20
99
 11
99
 21
99
  0
LINE
  8
0
 10
54
 20
99
 11
54
 21
111
  0
LINE
  8
0
 10
54
 20
111
 11
66
 21
111
  0
LINE
  8
0
 10
66
 20
111
 11
66
 21
99
  0
LINE
  8
0
 10
66
 20
99
 11
54
 21
99
  0
LINE
  8
0
 10
84
 20
99
 11
84
 21
111
  0
LINE
  8
0
 10
84
 20
111
 11
96
 21
111
  0
LINE
  8
0
 10
96
 20
111
 11
96
 21
99
  0
LINE
  8
0
 10
96
 20
99
 11
84
 21
99
  0
LINE
  8
0
 10
69
 20
99
 11
69
 21
111
  0
LINE
  8
0
 10
69
 20
111
 11
81
 21
111
  0
LINE
  8
0
 10
81
 20
111
 11
81
 21
99
  0
LINE
  8
0
 10
81
 20
99
 11
69
 21
99
  0
LINE
  8
0
 10
39
 20
84
 11
39
 21
96
  0
LINE
  8
0
 10
39
 20
96
 11
51
 21
96
  0
LINE
  8
0
 10
51
 20
96
 11
51
 21
84
  0
LINE
  8
0
 10
51
 20
84
 11
39
 21
84
  0
LINE
  8
0
 10
54
 20
84
 11
54
 21
96
  0
LINE
  8
0
 10
54
 20
96
 11
66
 21
96
  0
LINE
  8
0
 10
66
 20
96
 11
66
 21
84
  0
LINE
  8
0
 10
66
 20
84
 11
54
 21
84
  0
LINE
  8
0
 10
144
 20
84
 11
144
 21
96
  0
LINE
  8
0
 10
144
 20
96
 11
156
 21
96
  0
LINE
  8
0
 10
156
 20
96
 11
156
 21
84
  0
LINE
  8
0
 10
156
 20
84
 11
144
 21
84
  0
LINE
  8
0
 10
99
 20
84
 11
99
 21
96
  0
LINE
  8
0
 10
99
 20
96
 11
111
 21
96
  0
LINE
  8
0
 10
111
 20
96
 11
111
 21
84
  0
LINE
  8
0
 10
111
 20
84
 11
99
 21
84
  0
LINE
  8
0
 10
114
 20
84
 11
114
 21
96
  0
LINE
  8
0
 10
114
 20
96
 11
126
 21
96
  0
LINE
  8
0
 10
126
 20
96
 11
126
 21
84
  0
LINE
  8
0
 10
126
 20
84
 11
114
 21
84
  0
LINE
  8
0
 10
9
 20
84
 11
9
 21
96
  0
LINE
  8
0
 10
9
 20
96
 11
21
 21
96
  0
LINE
  8
0
 10
21
 20
96
 11
21
 21
84
  0
LINE
  8
0
 10
21
 20
84
 11
9
 21
84
  0
LINE
  8
0
 10
24
 20
84
 11
24
 21
96
  0
LINE
  8
0
 10
24
 20
96
 11
36
 21
96
  0
LINE
  8
0
 10
36
 20
96
 11
36
 21
84
  0
LINE
  8
0
 10
36
 20
84
 11
24
 21
84
  0
LINE
  8
0
 10
69
 20
84
 11
69
 21
96
  0
LINE
  8
0
 10
69
 20
96
 11
81
 21
96
  0
LINE
  8
0
 10
81
 20
96
 11
81
 21
84
  0
LINE
  8
0
 10
81
 20
84
 11
69
 21
84
  0
LINE
  8
0
 10
129
 20
84
 11
129
 21
96
  0
LINE
  8
0
 10
129
 20
96
 11
141
 21
96
  0
LINE
  8
0
 10
141
 20
96
 11
141
 21
84
  0
LINE
  8
0
 10
141
 20
84
 11
129
 21
84
  0
LINE
  8
0
 10
84
 20
84
 11
84
 21
96
  0
LINE
  8
0
 10
84
 20
96
 11
96
 21
96
  0
LINE
  8
0
 10
96
 20
96
 11
96
 21
84
  0
LINE
  8
0
 10
96
 20
84
 11
84
 21
84
  0
LINE
  8
0
 10
99
 20
69
 11
99
 21
81
  0
LINE
  8
0
 10
99
 20
81
 11
111
 21
81
  0
LINE
  8
0
 10
111
 20
81
 11
111
 21
69
  0
LINE
  8
0
 10
111
 20
69
 11
99
 21
69
  0
LINE
  8
0
 10
129
 20
69
 11
129
 21
81
  0
LINE
  8
0
 10
129
 20
81
 11
141
 21
81
  0
LINE
  8
0
 10
141
 20
81
 11
141
 21
69
  0
LINE
  8
0
 10
141
 20
69
 11
129
 21
69
  0
LINE
  8
0
 10
69
 20
69
 11
69
 21
81
  0
LINE
  8
0
 10
69
 20
81
 11
81
 21
81
  0
LINE
  8
0
 10
81
 20
81
 11
81
 21
69
  0
LINE
  8
0
 10
81
 20
69
 11
69
 21
69
  0
LINE
  8
0
 10
24
 20
69
 11
24
 21
81
  0
LINE
  8
0
 10
24
 20
81
 11
36
 21
81
  0
LINE
  8
0
 10
36
 20
81
 11
36
 21
69
  0
LINE
  8
0
 10
36
 20
69
 11
24
 21
69
  0
LINE
  8
0
 10
114
 20
69
 11
114
 21
81
  0
LINE
  8
0
 10
114
 20
81
 11
126
 21
81
  0
LINE
  8
0
 10
126
 20
81
 11
126
 21
69
  0
LINE
  8
0
 10
126
 20
69
 11
114
 21
69
  0
LINE
  8
0
 10
39
 20
69
 11
39
 21
81
  0
LINE
  8
0
 10
39
 20
81
 11
51
 21
81
  0
LINE
  8
0
 10
51
 20
81
 11
51
 21
69
  0
LINE
  8
0
 10
51
 20
69
 11
39
 21
69
  0
LINE
  8
0
 10
54
 20
69
 11
54
 21
81
  0
LINE
  8
0
 10
54
 20
81
 11
66
 21
81
  0
LINE
  8
0
 10
66
 20
81
 11
66
 21
69
  0
LINE
  8
0
 10
66
 20
69
 11
54
 21
69
  0
LINE
  8
0
 10
9
 20
69
 11
9
 21
81
  0
LINE
  8
0
 10
9
 20
81
 11
21
 21
81
  0
LINE
  8
0
 10
21
 20
81
 11
21
 21
69
  0
LINE
  8
0
 10
21
 20
69
 11
9
 21
69
  0
LINE
  8
0
 10
84
 20
69
 11
84
 21
81
  0
LINE
  8
0
 10
84
 20
81
 11
96
 21
81
  0
LINE
  8
0
 10
96
 20
81
 11
96
 21
69
  0
LINE
  8
0
 10
96
 20
69
 11
84
 21
69
  0
LINE
  8
0
 10
144
 20
69
 11
144
 21
81
  0
LINE
  8
0
 10
144
 20
81
 11
156
 21
81
  0
LINE
  8
0
 10
156
 20
81
 11
156
 21
69
  0
LINE
  8
0
 10
156
 20
69
 11
144
 21
69
  0
LINE
  8
0
 10
84
 20
54
 11
84
 21
66
  0
LINE
  8
0
 10
84
 20
66
 11
96
 21
66
  0
LINE
  8
0
 10
96
 20
66
 11
96
 21
54
  0
LINE
  8
0
 10
96
 20
54
 11
84
 21
54
  0
LINE
  8
0
 10
99
 20
54
 11
99
 21
66
  0
LINE
  8
0
 10
99
 20
66
 11
111
 21
66
  0
LINE
  8
0
 10
111
 20
66
 11
111
 21
54
  0
LINE
  8
0
 10
111
 20
54
 11
99
 21
54
  0
LINE
  8
0
 10
24
 20
54
 11
24
 21
66
  0
LINE
  8
0
 10
24
 20
66
 11
36
 21
66
  0
LINE
  8
0
 10
36
 20
66
 11
36
 21
54
  0
LINE
  8
0
 10
36
 20
54
 11
24
 21
54
  0
LINE
  8
0
 10
9
 20
54
 11
9
 21
66
  0
LINE
  8
0
 10
9
 20
66
 11
21
 21
66
  0
LINE
  8
0
 10
21
 20
66
 11
21
 21
54
  0
LINE
  8
0
 10
21
 20
54
 11
9
 21
54
  0
LINE
  8
0
 10
144
 20
54
 11
144
 21
66
  0
LINE
  8
0
 10
144
 20
66
 11
156
 21
66
  0
LINE
  8
0
 10
156
 20
66
 11
156
 21
54
  0
LINE
  8
0
 10
156
 20
54
 11
144
 21
54
  0
LINE
  8
0
 10
39
 20
54
 11
39
 21
66
  0
LINE
  8
0
 10
39
 20
66
 11
51
 21
66
  0
LINE
  8
0
 10
51
 20
66
 11
51
 21
54
  0
LINE
  8
0
 10
51
 20
54
 11
39
 21
54
  0
LINE
  8
0
 10
54
 20
54
 11
54
 21
66
  0
LINE
  8
0
 10
54
 20
66
 11
66
 21
66
  0
LINE
  8
0
 10
66
 20
66
 11
66
 21
54
  0
LINE
  8
0
 10
66
 20
54
 11
54
 21
54
  0
LINE
  8
0
 10
114
 20
54
 11
114
 21
66
  0
LINE
  8
0
 10
114
 20
66
 11
126
 21
66
  0
LINE
  8
0
 10
126
 20
66
 11
126
 21
54
  0
LINE
  8
0
 10
126
 20
54
 11
114
 21
54
  0
LINE
  8
0
 10
69
 20
54
 11
69
 21
66
  0
LINE
  8
0
 10
69
 20
66
 11
81
 21
66
  0
LINE
  8
0
 10
81
 20
66
 11
81
 21
54
  0
LINE
  8
0
 10
81
 20
54
 11
69
 21
54
  0
LINE
  8
0
 10
129
 20
54
 11
129
 21
66
  0
LINE
  8
0
 10
129
 20
66
 11
141
 21
66
  0
LINE
  8
0
 10
141
 20
66
 11
141
 21
54
  0
LINE
  8
0
 10
141
 20
54
 11
129
 21
54
  0
LINE
  8
0
 10
54
 20
39
 11
54
 21
51
  0
LINE
  8
0
 10
54
 20
51
 11
66
 21
51
  0
LINE
  8
0
 10
66
 20
51
 11
66
 21
39
  0
LINE
  8
0
 10
66
 20
39
 11
54
 21
39
  0
LINE
  8
0
 10
24
 20
39
 11
24
 21
51
  0
LINE
  8
0
 10
24
 20
51
 11
36
 21
51
  0
LINE
  8
0
 10
36
 20
51
 11
36
 21
39
  0
LINE
  8
0
 10
36
 20
39
 11
24
 21
39
  0
LINE
  8
0
 10
9
 20
39
 11
9
 21
51
  0
LINE
  8
0
 10
9
 20
51
 11
21
 21
51
  0
LINE
  8
0
 10
21
 20
51
 11
21
 21
39
  0
LINE
  8
0
 10
21
 20
39
 11
9
 21
39
  0
LINE
  8
0
 10
69
 20
39
 11
69
 21
51
  0
LINE
  8
0
 10
69
 20
51
 11
81
 21
51
  0
LINE
  8
0
 10
81
 20
51
 11
81
 21
39
  0
LINE
  8
0
 10
81
 20
39
 11
69
 21
39
  0
LINE
  8
0
 10
114
 20
39
 11
114
 21
51
  0
LINE
  8
0
 10
114
 20
51
 11
126
 21
51
  0
LINE
  8
0
 10
126
 20
51
 11
126
 21
39
  0
LINE
  8
0
 10
126
 20
39
 11
114
 21
39
  0
LINE
  8
0
 10
144
 20
39
 11
144
 21
51
  0
LINE
  8
0
 10
144
 20
51
 11
156
 21
51
  0
LINE
  8
0
 10
156
 20
51
 11
156
 21
39
  0
LINE
  8
0
 10
156
 20
39
 11
144
 21
39
  0
LINE
  8
0
 10
39
 20
39
 11
39
 21
51
  0
LINE
  8
0
 10
39
 20
51
 11
51
 21
51
  0
LINE
  8
0
 10
51
 20
51
 11
51
 21
39
  0
LINE
  8
0
 10
51
 20
39
 11
39
 21
39
  0
LINE
  8
0
 10
99
 20
39
 11
99
 21
51
  0
LINE
  8
0
 10
99
 20
51
 11
111
 21
51
  0
LINE
  8
0
 10
111
 20
51
 11
111
 21
39
  0
LINE
  8
0
 10
111
 20
39
 11
99
 21
39
  0
LINE
  8
0
 10
84
 20
39
 11
84
 21
51
  0
LINE
  8
0
 10
84
 20
51
 11
96
 21
51
  0
LINE
  8
0
 10
96
 20
51
 11
96
 21
39
  0
LINE
  8
0
 10
96
 20
39
 11
84
 21
39
  0
LINE
  8
0
 10
129
 20
39
 11
129
 21
51
  0
LINE
  8
0
 10
129
 20
51
 11
141
 21
51
  0
LINE
  8
0
 10
141
 20
51
 11
141
 21
39
  0
LINE
  8
0
 10
141
 20
39
 11
129
 21
39
  0
LINE
  8
0
 10
114
 20
24
 11
114
 21
36
  0
LINE
  8
0
 10
114
 20
36
 11
126
 21
36
  0
LINE
  8
0
 10
126
 20
36
 11
126
 21
24
  0
LINE
  8
0
 10
126
 20
24
 11
114
 21
24
  0
LINE
  8
0
 10
69
 20
24
 11
69
 21
36
  0
LINE
  8
0
 10
69
 20
36
 11
81
 21
36
  0
LINE
  8
0
 10
81
 20
36
 11
81
 21
24
  0
LINE
  8
0
 10
81
 20
24
 11
69
 21
24
  0
LINE
  8
0
 10
84
 20
24
 11
84
 21
36
  0
LINE
  8
0
 10
84
 20
36
 11
96
 21
36
  0
LINE
  8
0
 10
96
 20
36
 11
96
 21
24
  0
LINE
  8
0
 10
96
 20
24
 11
84
 21
24
  0
LINE
  8
0
 10
39
 20
24
 11
39
 21
36
  0
LINE
  8
0
 10
39
 20
36
 11
51
 21
36
  0
LINE
  8
0
 10
51
 20
36
 11
51
 21
24
  0
LINE
  8
0
 10
51
 20
24
 11
39
 21
24
  0
LINE
  8
0
 10
99
 20
24
 11
99
 21
36
  0
LINE
  8
0
 10
99
 20
36
 11
111
 21
36
  0
LINE
  8
0
 10
111
 20
36
 11
111
 21
24
  0
LINE
  8
0
 10
111
 20
24
 11
99
 21
24
  0
LINE
  8
0
 10
9
 20
24
 11
9
 21
36
  0
LINE
  8
0
 10
9
 20
36
 11
21
 21
36
  0
LINE
  8
0
 10
21
 20
36
 11
21
 21
24
  0
LINE
  8
0
 10
21
 20
24
 11
9
 21
24
  0
LINE
  8
0
 10
24
 20
24
 11
24
 21
36
  0
LINE
  8
0
 10
24
 20
36
 11
36
 21
36
  0
LINE
  8
0
 10
36
 20
36
 11
36
 21
24
  0
LINE
  8
0
 10
36
 20
24
 11
24
 21
24
  0
LINE
  8
0
 10
54
 20
24
 11
54
 21
36
  0
LINE
  8
0
 10
54
 20
36
 11
66
 21
36
  0
LINE
  8
0
 10
66
 20
36
 11
66
 21
24
  0
LINE
  8
0
 10
66
 20
24
 11
54
 21
24
  0
LINE
  8
0
 10
129
 20
24
 11
129
 21
36
  0
LINE
  8
0
 10
129
 20
36
 11
141
 21
36
  0
LINE
  8
0
 10
141
 20
36
 11
141
 21
24
  0
LINE
  8
0
 10
141
 20
24
 11
129
 21
24
  0
LINE
  8
0
 10
144
 20
24
 11
144
 21
36
  0
LINE
  8
0
 10
144
 20
36
 11
156
 21
36
  0
LINE
  8
0
 10
156
 20
36
 11
156
 21
24
  0
LINE
  8
0
 10
156
 20
24
 11
144
 21
24
  0
LINE
  8
0
 10
129
 20
9
 11
129
 21
21
  0
LINE
  8
0
 10
129
 20
21
 11
141
 21
21
  0
LINE
  8
0
 10
141
 20
21
 11
141
 21
9
  0
LINE
  8
0
 10
141
 20
9
 11
129
 21
9
  0
LINE
  8
0
 10
24
 20
9
 11
24
 21
21
  0
LINE
  8
0
 10
24
 20
21
 11
36
 21
21
  0
LINE
  8
0
 10
36
 20
21
 11
36
 21
9
  0
LINE
  8
0
 10
36
 20
9
 11
24
 21
9
  0
LINE
  8
0
 10
114
 20
9
 11
114
 21
21
  0
LINE
  8
0
 10
114
 20
21
 11
126
 21
21
  0
LINE
  8
0
 10
126
 20
21
 11
126
 21
9
  0
LINE
  8
0
 10
126
 20
9
 11
114
 21
9
  0
LINE
  8
0
 10
54
 20
9
 11
54
 21
21
  0
LINE
  8
0
 10
54
 20
21
 11
66
 21
21
  0
LINE
  8
0
 10
66
 20
21
 11
66
 21
9
  0
LINE
  8
0
 10
66
 20
9
 11
54
 21
9
  0
LINE
  8
0
 10
39
 20
9
 11
39
 21
21
  0
LINE
  8
0
 10
39
 20
21
 11
51
 21
21
  0
LINE
  8
0
 10
51
 20
21
 11
51
 21
9
  0
LINE
  8
0
 10
51
 20
9
 11
39
 21
9
  0
LINE
  8
0
 10
84
 20
9
 11
84
 21
21
  0
LINE
  8
0
 10
84
 20
21
 11
96
 21
21
  0
LINE
  8
0
 10
96
 20
21
 11
96
 21
9
  0
LINE
  8
0
 10
96
 20
9
 11
84
 21
9
  0
LINE
  8
0
 10
69
 20
9
 11
69
 21
21
  0
LINE
  8
0
 10
69
 20
21
 11
81
 21
21
  0
LINE
  8
0
 10
81
 20
21
 11
81
 21
9
  0
LINE
  8
0
 10
81
 20
9
 11
69
 21
9
  0
LINE
  8
0
 10
99
 20
9
 11
99
 21
21
  0
LINE
  8
0
 10
99
 20
21
 11
111
 21
21
  0
LINE
  8
0
 10
111
 20
21
 11
111
 21
9
  0
LINE
  8
0
 10
111
 20
9
 11
99
 21
9
  0
LINE
  8
0
 10
149.828
 20
13.2584
 11
149.659
 21
13.2836
  0
LINE
  8
0
 10
149.659
 20
13.2836
 11
149.492
 21
13.3253
  0
LINE
  8
0
 10
149.492
 20
13.3253
 11
149.33
 21
13.3832
  0
LINE
  8
0
 10
149.33
 20
13.3832
 11
149.175
 21
13.4566
  0
LINE
  8
0
 10
149.175
 20
13.4566
 11
149.028
 21
13.5449
  0
LINE
  8
0
 10
149.028
 20
13.5449
 11
148.89
 21
13.6472
  0
LINE
  8
0
 10
148.89
 20
13.6472
 11
148.763
 21
13.7626
  0
LINE
  8
0
 10
148.763
 20
13.7626
 11
148.647
 21
13.8898
  0
LINE
  8
0
 10
148.647
 20
13.8898
 11
148.545
 21
14.0277
  0
LINE
  8
0
 10
148.545
 20
14.0277
 11
148.457
 21
14.175
  0
LINE
  8
0
 10
148.457
 20
14.175
 11
148.383
 21
14.3303
  0
LINE
  8
0
 10
148.383
 20
14.3303
 11
148.325
 21
14.492
  0
LINE
  8
0
 10
148.325
 20
14.492
 11
148.284
 21
14.6586
  0
LINE
  8
0
 10
148.284
 20
14.6586
 11
148.258
 21
14.8285
  0
LINE
  8
0
 10
148.258
 20
14.8285
 11
148.25
 21
15
  0
LINE
  8
0
 10
148.25
 20
15
 11
148.258
 21
15.1715
  0
LINE
  8
0
 10
148.258
 20
15.1715
 11
148.284
 21
15.3414
  0
LINE
  8
0
 10
148.284
 20
15.3414
 11
148.325
 21
15.508
  0
LINE
  8
0
 10
148.325
 20
15.508
 11
148.383
 21
15.6697
  0
LINE
  8
0
 10
148.383
 20
15.6697
 11
148.457
 21
15.8249
  0
LINE
  8
0
 10
148.457
 20
15.8249
 11
148.545
 21
15.9722
  0
LINE
  8
0
 10
148.545
 20
15.9722
 11
148.647
 21
16.1102
  0
LINE
  8
0
 10
148.647
 20
16.1102
 11
148.763
 21
16.2374
  0
LINE
  8
0
 10
148.763
 20
16.2374
 11
148.89
 21
16.3528
  0
LINE
  8
0
 10
148.89
 20
16.3528
 11
149.028
 21
16.4551
  0
LINE
  8
0
 10
149.028
 20
16.4551
 11
149.175
 21
16.5434
  0
LINE
  8
0
 10
149.175
 20
16.5434
 11
149.33
 21
16.6168
  0
LINE
  8
0
 10
149.33
 20
16.6168
 11
149.492
 21
16.6746
  0
LINE
  8
0
 10
149.492
 20
16.6746
 11
149.659
 21
16.7164
  0
LINE
  8
0
 10
149.659
 20
16.7164
 11
149.828
 21
16.7416
  0
LINE
  8
0
 10
149.828
 20
16.7416
 11
150
 21
16.75
  0
LINE
  8
0
 10
150
 20
16.75
 11
150.172
 21
16.7416
  0
LINE
  8
0
 10
150.172
 20
16.7416
 11
150.341
 21
16.7164
  0
LINE
  8
0
 10
150.341
 20
16.7164
 11
150.508
 21
16.6746
  0
LINE
  8
0
 10
150.508
 20
16.6746
 11
150.67
 21
16.6168
  0
LINE
  8
0
 10
150.67
 20
16.6168
 11
150.825
 21
16.5434
  0
LINE
  8
0
 10
150.825
 20
16.5434
 11
150.972
 21
16.4551
  0
LINE
  8
0
 10
150.972
 20
16.4551
 11
151.11
 21
16.3528
  0
LINE
  8
0
 10
151.11
 20
16.3528
 11
151.237
 21
16.2374
  0
LINE
  8
0
 10
151.237
 20
16.2374
 11
151.353
 21
16.1102
  0
LINE
  8
0
 10
151.353
 20
16.1102
 11
151.455
 21
15.9722
  0
LINE
  8
0
 10
151.455
 20
15.9722
 11
151.543
 21
15.8249
  0
LINE
  8
0
 10
151.543
 20
15.8249
 11
151.617
 21
15.6697
  0
LINE
  8
0
 10
151.617
 20
15.6697
 11
151.675
 21
15.508
  0
LINE
  8
0
 10
151.675
 20
15.508
 11
151.716
 21
15.3414
  0
LINE
  8
0
 10
151.716
 20
15.3414
 11
151.742
 21
15.1715
  0
LINE
  8
0
 10
151.742
 20
15.1715
 11
151.75
 21
15
  0
LINE
  8
0
 10
151.75
 20
15
 11
151.742
 21
14.8285
  0
LINE
  8
0
 10
151.742
 20
14.8285
 11
151.716
 21
14.6586
  0
LINE
  8
0
 10
151.716
 20
14.6586
 11
151.675
 21
14.492
  0
LINE
  8
0
 10
151.675
 20
14.492
 11
151.617
 21
14.3303
  0
LINE
  8
0
 10
151.617
 20
14.3303
 11
151.543
 21
14.175
  0
LINE
  8
0
 10
151.543
 20
14.175
 11
151.455
 21
14.0277
  0
LINE
  8
0
 10
151.455
 20
14.0277
 11
151.353
 21
13.8898
  0
LINE
  8
0
 10
151.353
 20
13.8898
 11
151.237
 21
13.7626
  0
LINE
  8
0
 10
151.237
 20
13.7626
 11
151.11
 21
13.6472
  0
LINE
  8
0
 10
151.11
 20
13.6472
 11
150.972
 21
13.5449
  0
LINE
  8
0
 10
150.972
 20
13.5449
 11
150.825
 21
13.4566
  0
LINE
  8
0
 10
150.825
 20
13.4566
 11
150.67
 21
13.3832
  0
LINE
  8
0
 10
150.67
 20
13.3832
 11
150.508
 21
13.3253
  0
LINE
  8
0
 10
150.508
 20
13.3253
 11
150.341
 21
13.2836
  0
LINE
  8
0
 10
150.341
 20
13.2836
 11
150.172
 21
13.2584
  0
LINE
  8
0
 10
150.172
 20
13.2584
 11
150
 21
13.25
  0
LINE
  8
0
 10
150
 20
13.25
 11
149.828
 21
13.2584
  0
LINE
  8
0
 10
14.8285
 20
13.2584
 11
14.6586
 21
13.2836
  0
LINE
  8
0
 10
14.6586
 20
13.2836
 11
14.492
 21
13.3253
  0
LINE
  8
0
 10
14.492
 20
13.3253
 11
14.3303
 21
13.3832
  0
LINE
  8
0
 10
14.3303
 20
13.3832
 11
14.175
 21
13.4566
  0
LINE
  8
0
 10
14.175
 20
13.4566
 11
14.0277
 21
13.5449
  0
LINE
  8
0
 10
14.0277
 20
13.5449
 11
13.8898
 21
13.6472
  0
LINE
  8
0
 10
13.8898
 20
13.6472
 11
13.7626
 21
13.7626
  0
LINE
  8
0
 10
13.7626
 20
13.7626
 11
13.6472
 21
13.8898
  0
LINE
  8
0
 10
13.6472
 20
13.8898
 11
13.5449
 21
14.0277
  0
LINE
  8
0
 10
13.5449
 20
14.0277
 11
13.4566
 21
14.175
  0
LINE
  8
0
 10
13.4566
 20
14.175
 11
13.3832
 21
14.3303
  0
LINE
  8
0
 10
13.3832
 20
14.3303
 11
13.3253
 21
14.492
  0
LINE
  8
0
 10
13.3253
 20
14.492
 11
13.2836
 21
14.6586
  0
LINE
  8
0
 10
13.2836
 20
14.6586
 11
13.2584
 21
14.8285
  0
LINE
  8
0
 10
13.2584
 20
14.8285
 11
13.25
 21
15
  0
LINE
  8
0
 10
13.25
 20
15
 11
13.2584
 21
15.1715
  0
LINE
  8
0
 10
13.2584
 20
15.1715
 11
13.2836
 21
15.3414
  0
LINE
  8
0
 10
13.2836
 20
15.3414
 11
13.3253
 21
15.508
  0
LINE
  8
0
 10
13.3253
 20
15.508
 11
13.3832
 21
15.6697
  0
LINE
  8
0
 10
13.3832
 20
15.6697
 11
13.4566
 21
15.8249
  0
LINE
  8
0
 10
13.4566
 20
15.8249
 11
13.5449
 21
15.9722
  0
LINE
  8
0
 10
13.5449
 20
15.9722
 11
13.6472
 21
16.1102
  0
LINE
  8
0
 10
13.6472
 20
16.1102
 11
13.7626
 21
16.2374
  0
LINE
  8
0
 10
13.7626
 20
16.2374
 11
13.8898
 21
16.3528
  0
LINE
  8
0
 10
13.8898
 20
16.3528
 11
14.0277
 21
16.4551
  0
LINE
  8
0
 10
14.0277
 20
16.4551
 11
14.175
 21
16.5434
  0
LINE
  8
0
 10
14.175
 20
16.5434
 11
14.3303
 21
16.6168
  0
LINE
  8
0
 10
14.3303
 20
16.6168
 11
14.492
 21
16.6746
  0
LINE
  8
0
 10
14.492
 20
16.6746
 11
14.6586
 21
16.7164
  0
LINE
  8
0
 10
14.6586
 20
16.7164
 11
14.8285
 21
16.7416
  0
LINE
  8
0
 10
14.8285
 20
16.7416
 11
15
 21
16.75
  0
LINE
  8
0
 10
15
 20
16.75
 11
15.1715
 21
16.7416
  0
LINE
  8
0
 10
15.1715
 20
16.7416
 11
15.3414
 21
16.7164
  0
LINE
  8
0
 10
15.3414
 20
16.7164
 11
15.508
 21
16.6746
  0
LINE
  8
0
 10
15.508
 20
16.6746
 11
15.6697
 21
16.6168
  0
LINE
  8
0
 10
15.6697
 20
16.6168
 11
15.8249
 21
16.5434
  0
LINE
  8
0
 10
15.8249
 20
16.5434
 11
15.9722
 21
16.4551
  0
LINE
  8
0
 10
15.9722
 20
16.4551
 11
16.1102
 21
16.3528
  0
LINE
  8
0
 10
16.1102
 20
16.3528
 11
16.2374
 21
16.2374
  0
LINE
  8
0
 10
16.2374
 20
16.2374
 11
16.3528
 21
16.1102
  0
LINE
  8
0
 10
16.3528
 20
16.1102
 11
16.4551
 21
15.9722
  0
LINE
  8
0
 10
16.4551
 20
15.9722
 11
16.5434
 21
15.8249
  0
LINE
  8
0
 10
16.5434
 20
15.8249
 11
16.6168
 21
15.6697
  0
LINE
  8
0
 10
16.6168
 20
15.6697
 11
16.6746
 21
15.508
  0
LINE
  8
0
 10
16.6746
 20
15.508
 11
16.7164
 21
15.3414
  0
LINE
  8
0
 10
16.7164
 20
15.3414
 11
16.7416
 21
15.1715
  0
LINE
  8
0
 10
16.7416
 20
15.1715
 11
16.75
 21
15
  0
LINE
  8
0
 10
16.75
 20
15
 11
16.7416
 21
14.8285
  0
LINE
  8
0
 10
16.7416
 20
14.8285
 11
16.7164
 21
14.6586
  0
LINE
  8
0
 10
16.7164
 20
14.6586
 11
16.6746
 21
14.492
  0
LINE
  8
0
 10
16.6746
 20
14.492
 11
16.6168
 21
14.3303
  0
LINE
  8
0
 10
16.6168
 20
14.3303
 11
16.5434
 21
14.175
  0
LINE
  8
0
 10
16.5434
 20
14.175
 11
16.4551
 21
14.0277
  0
LINE
  8
0
 10
16.4551
 20
14.0277
 11
16.3528
 21
13.8898
  0
LINE
  8
0
 10
16.3528
 20
13.8898
 11
16.2374
 21
13.7626
  0
LINE
  8
0
 10
16.2374
 20
13.7626
 11
16.1102
 21
13.6472
  0
LINE
  8
0
 10
16.1102
 20
13.6472
 11
15.9722
 21
13.5449
  0
LINE
  8
0
 10
15.9722
 20
13.5449
 11
15.8249
 21
13.4566
  0
LINE
  8
0
 10
15.8249
 20
13.4566
 11
15.6697
 21
13.3832
  0
LINE
  8
0
 10
15.6697
 20
13.3832
 11
15.508
 21
13.3253
  0
LINE
  8
0
 10
15.508
 20
13.3253
 11
15.3414
 21
13.2836
  0
LINE
  8
0
 10
15.3414
 20
13.2836
 11
15.1715
 21
13.2584
  0
LINE
  8
0
 10
15.1715
 20
13.2584
 11
15
 21
13.25
  0
LINE
  8
0
 10
15
 20
13.25
 11
14.8285
 21
13.2584
  0
LINE
  8
0
 10
497
 20
165
 11
332
 21
165
  0
LINE
  8
0
 10
332
 20
165
 11
332
 21
0
  0
LINE
  8
0
 10
332
 20
0
 11
497
 21
0
  0
LINE
  8
0
 10
497
 20
0
 11
497
 21
165
  0
LINE
  8
0
 10
481.828
 20
148.258
 11
481.659
 21
148.284
  0
LINE
  8
0
 10
481.659
 20
148.284
 11
481.492
 21
148.325
  0
LINE
  8
0
 10
481.492
 20
148.325
 11
481.33
 21
148.383
  0
LINE
  8
0
 10
481.33
 20
148.383
 11
481.175
 21
148.457
  0
LINE
  8
0
 10
481.175
 20
148.457
 11
481.028
 21
148.545
  0
LINE
  8
0
 10
481.028
 20
148.545
 11
480.89
 21
148.647
  0
LINE
  8
0
 10
480.89
 20
148.647
 11
480.763
 21
148.763
  0
LINE
  8
0
 10
480.763
 20
148.763
 11
480.647
 21
148.89
  0
LINE
  8
0
 10
480.647
 20
148.89
 11
480.545
 21
149.028
  0
LINE
  8
0
 10
480.545
 20
149.028
 11
480.457
 21
149.175
  0
LINE
  8
0
 10
480.457
 20
149.175
 11
480.383
 21
149.33
  0
LINE
  8
0
 10
480.383
 20
149.33
 11
480.325
 21
149.492
  0
LINE
  8
0
 10
480.325
 20
149.492
 11
480.284
 21
149.659
  0
LINE
  8
0
 10
480.284
 20
149.659
 11
480.258
 21
149.828
  0
LINE
  8
0
 10
480.258
 20
149.828
 11
480.25
 21
150
  0
LINE
  8
0
 10
480.25
 20
150
 11
480.258
 21
150.172
  0
LINE
  8
0
 10
480.258
 20
150.172
 11
480.284
 21
150.341
  0
LINE
  8
0
 10
480.284
 20
150.341
 11
480.325
 21
150.508
  0
LINE
  8
0
 10
480.325
 20
150.508
 11
480.383
 21
150.67
  0
LINE
  8
0
 10
480.383
 20
150.67
 11
480.457
 21
150.825
  0
LINE
  8
0
 10
480.457
 20
150.825
 11
480.545
 21
150.972
  0
LINE
  8
0
 10
480.545
 20
150.972
 11
480.647
 21
151.11
  0
LINE
  8
0
 10
480.647
 20
151.11
 11
480.763
 21
151.237
  0
LINE
  8
0
 10
480.763
 20
151.237
 11
480.89
 21
151.353
  0
LINE
  8
0
 10
480.89
 20
151.353
 11
481.028
 21
151.455
  0
LINE
  8
0
 10
481.028
 20
151.455
 11
481.175
 21
151.543
  0
LINE
  8
0
 10
481.175
 20
151.543
 11
481.33
 21
151.617
  0
LINE
  8
0
 10
481.33
 20
151.617
 11
481.492
 21
151.675
  0
LINE
  8
0
 10
481.492
 20
151.675
 11
481.659
 21
151.716
  0
LINE
  8
0
 10
481.659
 20
151.716
 11
481.828
 21
151.742
  0
LINE
  8
0
 10
481.828
 20
151.742
 11
482
 21
151.75
  0
LINE
  8
0
 10
482
 20
151.75
 11
482.172
 21
151.742
  0
LINE
  8
0
 10
482.172
 20
151.742
 11
482.341
 21
151.716
  0
LINE
  8
0
 10
482.341
 20
151.716
 11
482.508
 21
151.675
  0
LINE
  8
0
 10
482.508
 20
151.675
 11
482.67
 21
151.617
  0
LINE
  8
0
 10
482.67
 20
151.617
 11
482.825
 21
151.543
  0
LINE
  8
0
 10
482.825
 20
151.543
 11
482.972
 21
151.455
  0
LINE
  8
0
 10
482.972
 20
151.455
 11
483.11
 21
151.353
  0
LINE
  8
0
 10
483.11
 20
151.353
 11
483.237
 21
151.237
  0
LINE
  8
0
 10
483.237
 20
151.237
 11
483.353
 21
151.11
  0
LINE
  8
0
 10
483.353
 20
151.11
 11
483.455
 21
150.972
  0
LINE
  8
0
 10
483.455
 20
150.972
 11
483.543
 21
150.825
  0
LINE
  8
0
 10
483.543
 20
150.825
 11
483.617
 21
150.67
  0
LINE
  8
0
 10
483.617
 20
150.67
 11
483.675
 21
150.508
  0
LINE
  8
0
 10
483.675
 20
150.508
 11
483.716
 21
150.341
  0
LINE
  8
0
 10
483.716
 20
150.341
 11
483.742
 21
150.172
  0
LINE
  8
0
 10
483.742
 20
150.172
 11
483.75
 21
150
  0
LINE
  8
0
 10
483.75
 20
150
 11
483.742
 21
149.828
  0
LINE
  8
0
 10
483.742
 20
149.828
 11
483.716
 21
149.659
  0
LINE
  8
0
 10
483.716
 20
149.659
 11
483.675
 21
149.492
  0
LINE
  8
0
 10
483.675
 20
149.492
 11
483.617
 21
149.33
  0
LINE
  8
0
 10
483.617
 20
149.33
 11
483.543
 21
149.175
  0
LINE
  8
0
 10
483.543
 20
149.175
 11
483.455
 21
149.028
  0
LINE
  8
0
 10
483.455
 20
149.028
 11
483.353
 21
148.89
  0
LINE
  8
0
 10
483.353
 20
148.89
 11
483.237
 21
148.763
  0
LINE
  8
0
 10
483.237
 20
148.763
 11
483.11
 21
148.647
  0
LINE
  8
0
 10
483.11
 20
148.647
 11
482.972
 21
148.545
  0
LINE
  8
0
 10
482.972
 20
148.545
 11
482.825
 21
148.457
  0
LINE
  8
0
 10
482.825
 20
148.457
 11
482.67
 21
148.383
  0
LINE
  8
0
 10
482.67
 20
148.383
 11
482.508
 21
148.325
  0
LINE
  8
0
 10
482.508
 20
148.325
 11
482.341
 21
148.284
  0
LINE
  8
0
 10
482.341
 20
148.284
 11
482.172
 21
148.258
  0
LINE
  8
0
 10
482.172
 20
148.258
 11
482
 21
148.25
  0
LINE
  8
0
 10
482
 20
148.25
 11
481.828
 21
148.258
  0
LINE
  8
0
 10
346.828
 20
148.258
 11
346.659
 21
148.284
  0
LINE
  8
0
 10
346.659
 20
148.284
 11
346.492
 21
148.325
  0
LINE
  8
0
 10
346.492
 20
148.325
 11
346.33
 21
148.383
  0
LINE
  8
0
 10
346.33
 20
148.383
 11
346.175
 21
148.457
  0
LINE
  8
0
 10
346.175
 20
148.457
 11
346.028
 21
148.545
  0
LINE
  8
0
 10
346.028
 20
148.545
 11
345.89
 21
148.647
  0
LINE
  8
0
 10
345.89
 20
148.647
 11
345.763
 21
148.763
  0
LINE
  8
0
 10
345.763
 20
148.763
 11
345.647
 21
148.89
  0
LINE
  8
0
 10
345.647
 20
148.89
 11
345.545
 21
149.028
  0
LINE
  8
0
 10
345.545
 20
149.028
 11
345.457
 21
149.175
  0
LINE
  8
0
 10
345.457
 20
149.175
 11
345.383
 21
149.33
  0
LINE
  8
0
 10
345.383
 20
149.33
 11
345.325
 21
149.492
  0
LINE
  8
0
 10
345.325
 20
149.492
 11
345.284
 21
149.659
  0
LINE
  8
0
 10
345.284
 20
149.659
 11
345.258
 21
149.828
  0
LINE
  8
0
 10
345.258
 20
149.828
 11
345.25
 21
150
  0
LINE
  8
0
 10
345.25
 20
150
 11
345.258
 21
150.172
  0
LINE
  8
0
 10
345.258
 20
150.172
 11
345.284
 21
150.341
  0
LINE
  8
0
 10
345.284
 20
150.341
 11
345.325
 21
150.508
  0
LINE
  8
0
 10
345.325
 20
150.508
 11
345.383
 21
150.67
  0
LINE
  8
0
 10
345.383
 20
150.67
 11
345.457
 21
150.825
  0
LINE
  8
0
 10
345.457
 20
150.825
 11
345.545
 21
150.972
  0
LINE
  8
0
 10
345.545
 20
150.972
 11
345.647
 21
151.11
  0
LINE
  8
0
 10
345.647
 20
151.11
 11
345.763
 21
151.237
  0
LINE
  8
0
 10
345.763
 20
151.237
 11
345.89
 21
151.353
  0
LINE
  8
0
 10
345.89
 20
151.353
 11
346.028
 21
151.455
  0
LINE
  8
0
 10
346.028
 20
151.455
 11
346.175
 21
151.543
  0
LINE
  8
0
 10
346.175
 20
151.543
 11
346.33
 21
151.617
  0
LINE
  8
0
 10
346.33
 20
151.617
 11
346.492
 21
151.675
  0
LINE
  8
0
 10
346.492
 20
151.675
 11
346.659
 21
151.716
  0
LINE
  8
0
 10
346.659
 20
151.716
 11
346.828
 21
151.742
  0
LINE
  8
0
 10
346.828
 20
151.742
 11
347
 21
151.75
  0
LINE
  8
0
 10
347
 20
151.75
 11
347.172
 21
151.742
  0
LINE
  8
0
 10
347.172
 20
151.742
 11
347.341
 21
151.716
  0
LINE
  8
0
 10
347.341
 20
151.716
 11
347.508
 21
151.675
  0
LINE
  8
0
 10
347.508
 20
151.675
 11
347.67
 21
151.617
  0
LINE
  8
0
 10
347.67
 20
151.617
 11
347.825
 21
151.543
  0
LINE
  8
0
 10
347.825
 20
151.543
 11
347.972
 21
151.455
  0
LINE
  8
0
 10
347.972
 20
151.455
 11
348.11
 21
151.353
  0
LINE
  8
0
 10
348.11
 20
151.353
 11
348.237
 21
151.237
  0
LINE
  8
0
 10
348.237
 20
151.237
 11
348.353
 21
151.11
  0
LINE
  8
0
 10
348.353
 20
151.11
 11
348.455
 21
150.972
  0
LINE
  8
0
 10
348.455
 20
150.972
 11
348.543
 21
150.825
  0
LINE
  8
0
 10
348.543
 20
150.825
 11
348.617
 21
150.67
  0
LINE
  8
0
 10
348.617
 20
150.67
 11
348.675
 21
150.508
  0
LINE
  8
0
 10
348.675
 20
150.508
 11
348.716
 21
150.341
  0
LINE
  8
0
 10
348.716
 20
150.341
 11
348.742
 21
150.172
  0
LINE
  8
0
 10
348.742
 20
150.172
 11
348.75
 21
150
  0
LINE
  8
0
 10
348.75
 20
150
 11
348.742
 21
149.828
  0
LINE
  8
0
 10
348.742
 20
149.828
 11
348.716
 21
149.659
  0
LINE
  8
0
 10
348.716
 20
149.659
 11
348.675
 21
149.492
  0
LINE
  8
0
 10
348.675
 20
149.492
 11
348.617
 21
149.33
  0
LINE
  8
0
 10
348.617
 20
149.33
 11
348.543
 21
149.175
  0
LINE
  8
0
 10
348.543
 20
149.175
 11
348.455
 21
149.028
  0
LINE
  8
0
 10
348.455
 20
149.028
 11
348.353
 21
148.89
  0
LINE
  8
0
 10
348.353
 20
148.89
 11
348.237
 21
148.763
  0
LINE
  8
0
 10
348.237
 20
148.763
 11
348.11
 21
148.647
  0
LINE
  8
0
 10
348.11
 20
148.647
 11
347.972
 21
148.545
  0
LINE
  8
0
 10
347.972
 20
148.545
 11
347.825
 21
148.457
  0
LINE
  8
0
 10
347.825
 20
148.457
 11
347.67
 21
148.383
  0
LINE
  8
0
 10
347.67
 20
148.383
 11
347.508
 21
148.325
  0
LINE
  8
0
 10
347.508
 20
148.325
 11
347.341
 21
148.284
  0
LINE
  8
0
 10
347.341
 20
148.284
 11
347.172
 21
148.258
  0
LINE
  8
0
 10
347.172
 20
148.258
 11
347
 21
148.25
  0
LINE
  8
0
 10
347
 20
148.25
 11
346.828
 21
148.258
  0
LINE
  8
0
 10
346.828
 20
13.2584
 11
346.659
 21
13.2836
  0
LINE
  8
0
 10
346.659
 20
13.2836
 11
346.492
 21
13.3253
  0
LINE
  8
0
 10
346.492
 20
13.3253
 11
346.33
 21
13.3832
  0
LINE
  8
0
 10
346.33
 20
13.3832
 11
346.175
 21
13.4566
  0
LINE
  8
0
 10
346.175
 20
13.4566
 11
346.028
 21
13.5449
  0
LINE
  8
0
 10
346.028
 20
13.5449
 11
345.89
 21
13.6472
  0
LINE
  8
0
 10
345.89
 20
13.6472
 11
345.763
 21
13.7626
  0
LINE
  8
0
 10
345.763
 20
13.7626
 11
345.647
 21
13.8898
  0
LINE
  8
0
 10
345.647
 20
13.8898
 11
345.545
 21
14.0277
  0
LINE
  8
0
 10
345.545
 20
14.0277
 11
345.457
 21
14.175
  0
LINE
  8
0
 10
345.457
 20
14.175
 11
345.383
 21
14.3303
  0
LINE
  8
0
 10
345.383
 20
14.3303
 11
345.325
 21
14.492
  0
LINE
  8
0
 10
345.325
 20
14.492
 11
345.284
 21
14.6586
  0
LINE
  8
0
 10
345.284
 20
14.6586
 11
345.258
 21
14.8285
  0
LINE
  8
0
 10
345.258
 20
14.8285
 11
345.25
 21
15
  0
LINE
  8
0
 10
345.25
 20
15
 11
345.258
 21
15.1715
  0
LINE
  8
0
 10
345.258
 20
15.1715
 11
345.284
 21
15.3414
  0
LINE
  8
0
 10
345.284
 20
15.3414
 11
345.325
 21
15.508
  0
LINE
  8
0
 10
345.325
 20
15.508
 11
345.383
 21
15.6697
  0
LINE
  8
0
 10
345.383
 20
15.6697
 11
345.457
 21
15.8249
  0
LINE
  8
0
 10
345.457
 20
15.8249
 11
345.545
 21
15.9722
  0
LINE
  8
0
 10
345.545
 20
15.9722
 11
345.647
 21
16.1102
  0
LINE
  8
0
 10
345.647
 20
16.1102
 11
345.763
 21
16.2374
  0
LINE
  8
0
 10
345.763
 20
16.2374
 11
345.89
 21
16.3528
  0
LINE
  8
0
 10
345.89
 20
16.3528
 11
346.028
 21
16.4551
  0
LINE
  8
0
 10
346.028
 20
16.4551
 11
346.175
 21
16.5434
  0
LINE
  8
0
 10
346.175
 20
16.5434
 11
346.33
 21
16.6168
  0
LINE
  8
0
 10
346.33
 20
16.6168
 11
346.492
 21
16.6746
  0
LINE
  8
0
 10
346.492
 20
16.6746
 11
346.659
 21
16.7164
  0
LINE
  8
0
 10
346.659
 20
16.7164
 11
346.828
 21
16.7416
  0
LINE
  8
0
 10
346.828
 20
16.7416
 11
347
 21
16.75
  0
LINE
  8
0
 10
347
 20
16.75
 11
347.172
 21
16.7416
  0
LINE
  8
0
 10
347.172
 20
16.7416
 11
347.341
 21
16.7164
  0
LINE
  8
0
 10
347.341
 20
16.7164
 11
347.508
 21
16.6746
  0
LINE
  8
0
 10
347.508
 20
16.6746
 11
347.67
 21
16.6168
  0
LINE
  8
0
 10
347.67
 20
16.6168
 11
347.825
 21
16.5434
  0
LINE
  8
0
 10
347.825
 20
16.5434
 11
347.972
 21
16.4551
  0
LINE
  8
0
 10
347.972
 20
16.4551
 11
348.11
 21
16.3528
  0
LINE
  8
0
 10
348.11
 20
16.3528
 11
348.237
 21
16.2374
  0
LINE
  8
0
 10
348.237
 20
16.2374
 11
348.353
 21
16.1102
  0
LINE
  8
0
 10
348.353
 20
16.1102
 11
348.455
 21
15.9722
  0
LINE
  8
0
 10
348.455
 20
15.9722
 11
348.543
 21
15.8249
  0
LINE
  8
0
 10
348.543
 20
15.8249
 11
348.617
 21
15.6697
  0
LINE
  8
0
 10
348.617
 20
15.6697
 11
348.675
 21
15.508
  0
LINE
  8
0
 10
348.675
 20
15.508
 11
348.716
 21
15.3414
  0
LINE
  8
0
 10
348.716
 20
15.3414
 11
348.742
 21
15.1715
  0
LINE
  8
0
 10
348.742
 20
15.1715
 11
348.75
 21
15
  0
LINE
  8
0
 10
348.75
 20
15
 11
348.742
 21
14.8285
  0
LINE
  8
0
 10
348.742
 20
14.8285
 11
348.716
 21
14.6586
  0
LINE
  8
0
 10
348.716
 20
14.6586
 11
348.675
 21
14.492
  0
LINE
  8
0
 10
348.675
 20
14.492
 11
348.617
 21
14.3303
  0
LINE
  8
0
 10
348.617
 20
14.3303
 11
348.543
 21
14.175
  0
LINE
  8
0
 10
348.543
 20
14.175
 11
348.455
 21
14.0277
  0
LINE
  8
0
 10
348.455
 20
14.0277
 11
348.353
 21
13.8898
  0
LINE
  8
0
 10
348.353
 20
13.8898
 11
348.237
 21
13.7626
  0
LINE
  8
0
 10
348.237
 20
13.7626
 11
348.11
 21
13.6472
  0
LINE
  8
0
 10
348.11
 20
13.6472
 11
347.972
 21
13.5449
  0
LINE
  8
0
 10
347.972
 20
13.5449
 11
347.825
 21
13.4566
  0
LINE
  8
0
 10
347.825
 20
13.4566
 11
347.67
 21
13.3832
  0
LINE
  8
0
 10
347.67
 20
13.3832
 11
347.508
 21
13.3253
  0
LINE
  8
0
 10
347.508
 20
13.3253
 11
347.341
 21
13.2836
  0
LINE
  8
0
 10
347.341
 20
13.2836
 11
347.172
 21
13.2584
  0
LINE
  8
0
 10
347.172
 20
13.2584
 11
347
 21
13.25
  0
LINE
  8
0
 10
347
 20
13.25
 11
346.828
 21
13.2584
  0
LINE
  8
0
 10
481.828
 20
13.2584
 11
481.659
 21
13.2836
  0
LINE
  8
0
 10
481.659
 20
13.2836
 11
481.492
 21
13.3253
  0
LINE
  8
0
 10
481.492
 20
13.3253
 11
481.33
 21
13.3832
  0
LINE
  8
0
 10
481.33
 20
13.3832
 11
481.175
 21
13.4566
  0
LINE
  8
0
 10
481.175
 20
13.4566
 11
481.028
 21
13.5449
  0
LINE
  8
0
 10
481.028
 20
13.5449
 11
480.89
 21
13.6472
  0
LINE
  8
0
 10
480.89
 20
13.6472
 11
480.763
 21
13.7626
  0
LINE
  8
0
 10
480.763
 20
13.7626
 11
480.647
 21
13.8898
  0
LINE
  8
0
 10
480.647
 20
13.8898
 11
480.545
 21
14.0277
  0
LINE
  8
0
 10
480.545
 20
14.0277
 11
480.457
 21
14.175
  0
LINE
  8
0
 10
480.457
 20
14.175
 11
480.383
 21
14.3303
  0
LINE
  8
0
 10
480.383
 20
14.3303
 11
480.325
 21
14.492
  0
LINE
  8
0
 10
480.325
 20
14.492
 11
480.284
 21
14.6586
  0
LINE
  8
0
 10
480.284
 20
14.6586
 11
480.258
 21
14.8285
  0
LINE
  8
0
 10
480.258
 20
14.8285
 11
480.25
 21
15
  0
LINE
  8
0
 10
480.25
 20
15
 11
480.258
 21
15.1715
  0
LINE
  8
0
 10
480.258
 20
15.1715
 11
480.284
 21
15.3414
  0
LINE
  8
0
 10
480.284
 20
15.3414
 11
480.325
 21
15.508
  0
LINE
  8
0
 10
480.325
 20
15.508
 11
480.383
 21
15.6697
  0
LINE
  8
0
 10
480.383
 20
15.6697
 11
480.457
 21
15.8249
  0
LINE
  8
0
 10
480.457
 20
15.8249
 11
480.545
 21
15.9722
  0
LINE
  8
0
 10
480.545
 20
15.9722
 11
480.647
 21
16.1102
  0
LINE
  8
0
 10
480.647
 20
16.1102
 11
480.763
 21
16.2374
  0
LINE
  8
0
 10
480.763
 20
16.2374
 11
480.89
 21
16.3528
  0
LINE
  8
0
 10
480.89
 20
16.3528
 11
481.028
 21
16.4551
  0
LINE
  8
0
 10
481.028
 20
16.4551
 11
481.175
 21
16.5434
  0
LINE
  8
0
 10
481.175
 20
16.5434
 11
481.33
 21
16.6168
  0
LINE
  8
0
 10
481.33
 20
16.6168
 11
481.492
 21
16.6746
  0
LINE
  8
0
 10
481.492
 20
16.6746
 11
481.659
 21
16.7164
  0
LINE
  8
0
 10
481.659
 20
16.7164
 11
481.828
 21
16.7416
  0
LINE
  8
0
 10
481.828
 20
16.7416
 11
482
 21
16.75
  0
LINE
  8
0
 10
482
 20
16.75
 11
482.172
 21
16.7416
  0
LINE
  8
0
 10
482.172
 20
16.7416
 11
482.341
 21
16.7164
  0
LINE
  8
0
 10
482.341
 20
16.7164
 11
482.508
 21
16.6746
  0
LINE
  8
0
 10
482.508
 20
16.6746
 11
482.67
 21
16.6168
  0
LINE
  8
0
 10
482.67
 20
16.6168
 11
482.825
 21
16.5434
  0
LINE
  8
0
 10
482.825
 20
16.5434
 11
482.972
 21
16.4551
  0
LINE
  8
0
 10
482.972
 20
16.4551
 11
483.11
 21
16.3528
  0
LINE
  8
0
 10
483.11
 20
16.3528
 11
483.237
 21
16.2374
  0
LINE
  8
0
 10
483.237
 20
16.2374
 11
483.353
 21
16.1102
  0
LINE
  8
0
 10
483.353
 20
16.1102
 11
483.455
 21
15.9722
  0
LINE
  8
0
 10
483.455
 20
15.9722
 11
483.543
 21
15.8249
  0
LINE
  8
0
 10
483.543
 20
15.8249
 11
483.617
 21
15.6697
  0
LINE
  8
0
 10
483.617
 20
15.6697
 11
483.675
 21
15.508
  0
LINE
  8
0
 10
483.675
 20
15.508
 11
483.716
 21
15.3414
  0
LINE
  8
0
 10
483.716
 20
15.3414
 11
483.742
 21
15.1715
  0
LINE
  8
0
 10
483.742
 20
15.1715
 11
483.75
 21
15
  0
LINE
  8
0
 10
483.75
 20
15
 11
483.742
 21
14.8285
  0
LINE
  8
0
 10
483.742
 20
14.8285
 11
483.716
 21
14.6586
  0
LINE
  8
0
 10
483.716
 20
14.6586
 11
483.675
 21
14.492
  0
LINE
  8
0
 10
483.675
 20
14.492
 11
483.617
 21
14.3303
  0
LINE
  8
0
 10
483.617
 20
14.3303
 11
483.543
 21
14.175
  0
LINE
  8
0
 10
483.543
 20
14.175
 11
483.455
 21
14.0277
  0
LINE
  8
0
 10
483.455
 20
14.0277
 11
483.353
 21
13.8898
  0
LINE
  8
0
 10
483.353
 20
13.8898
 11
483.237
 21
13.7626
  0
LINE
  8
0
 10
483.237
 20
13.7626
 11
483.11
 21
13.6472
  0
LINE
  8
0
 10
483.11
 20
13.6472
 11
482.972
 21
13.5449
  0
LINE
  8
0
 10
482.972
 20
13.5449
 11
482.825
 21
13.4566
  0
LINE
  8
0
 10
482.825
 20
13.4566
 11
482.67
 21
13.3832
  0
LINE
  8
0
 10
482.67
 20
13.3832
 11
482.508
 21
13.3253
  0
LINE
  8
0
 10
482.508
 20
13.3253
 11
482.341
 21
13.2836
  0
LINE
  8
0
 10
482.341
 20
13.2836
 11
482.172
 21
13.2584
  0
LINE
  8
0
 10
482.172
 20
13.2584
 11
482
 21
13.25
  0
LINE
  8
0
 10
482
 20
13.25
 11
481.828
 21
13.2584
  0
LINE
  8
0
 10
331
 20
165
 11
166
 21
165
  0
LINE
  8
0
 10
166
 20
165
 11
166
 21
0
  0
LINE
  8
0
 10
166
 20
0
 11
331
 21
0
  0
LINE
  8
0
 10
331
 20
0
 11
331
 21
165
  0
LINE
  8
0
 10
190
 20
144
 11
190
 21
156
  0
LINE
  8
0
 10
190
 20
156
 11
202
 21
156
  0
LINE
  8
0
 10
202
 20
156
 11
202
 21
144
  0
LINE
  8
0
 10
202
 20
144
 11
190
 21
144
  0
LINE
  8
0
 10
205
 20
144
 11
205
 21
156
  0
LINE
  8
0
 10
205
 20
156
 11
217
 21
156
  0
LINE
  8
0
 10
217
 20
156
 11
217
 21
144
  0
LINE
  8
0
 10
217
 20
144
 11
205
 21
144
  0
LINE
  8
0
 10
220
 20
144
 11
220
 21
156
  0
LINE
  8
0
 10
220
 20
156
 11
232
 21
156
  0
LINE
  8
0
 10
232
 20
156
 11
232
 21
144
  0
LINE
  8
0
 10
232
 20
144
 11
220
 21
144
  0
LINE
  8
0
 10
235
 20
144
 11
235
 21
156
  0
LINE
  8
0
 10
235
 20
156
 11
247
 21
156
  0
LINE
  8
0
 10
247
 20
156
 11
247
 21
144
  0
LINE
  8
0
 10
247
 20
144
 11
235
 21
144
  0
LINE
  8
0
 10
265
 20
144
 11
265
 21
156
  0
LINE
  8
0
 10
265
 20
156
 11
277
 21
156
  0
LINE
  8
0
 10
277
 20
156
 11
277
 21
144
  0
LINE
  8
0
 10
277
 20
144
 11
265
 21
144
  0
LINE
  8
0
 10
280
 20
144
 11
280
 21
156
  0
LINE
  8
0
 10
280
 20
156
 11
292
 21
156
  0
LINE
  8
0
 10
292
 20
156
 11
292
 21
144
  0
LINE
  8
0
 10
292
 20
144
 11
280
 21
144
  0
LINE
  8
0
 10
295
 20
144
 11
295
 21
156
  0
LINE
  8
0
 10
295
 20
156
 11
307
 21
156
  0
LINE
  8
0
 10
307
 20
156
 11
307
 21
144
  0
LINE
  8
0
 10
307
 20
144
 11
295
 21
144
  0
LINE
  8
0
 10
250
 20
144
 11
250
 21
156
  0
LINE
  8
0
 10
250
 20
156
 11
262
 21
156
  0
LINE
  8
0
 10
262
 20
156
 11
262
 21
144
  0
LINE
  8
0
 10
262
 20
144
 11
250
 21
144
  0
LINE
  8
0
 10
315.828
 20
148.258
 11
315.659
 21
148.284
  0
LINE
  8
0
 10
315.659
 20
148.284
 11
315.492
 21
148.325
  0
LINE
  8
0
 10
315.492
 20
148.325
 11
315.33
 21
148.383
  0
LINE
  8
0
 10
315.33
 20
148.383
 11
315.175
 21
148.457
  0
LINE
  8
0
 10
315.175
 20
148.457
 11
315.028
 21
148.545
  0
LINE
  8
0
 10
315.028
 20
148.545
 11
314.89
 21
148.647
  0
LINE
  8
0
 10
314.89
 20
148.647
 11
314.763
 21
148.763
  0
LINE
  8
0
 10
314.763
 20
148.763
 11
314.647
 21
148.89
  0
LINE
  8
0
 10
314.647
 20
148.89
 11
314.545
 21
149.028
  0
LINE
  8
0
 10
314.545
 20
149.028
 11
314.457
 21
149.175
  0
LINE
  8
0
 10
314.457
 20
149.175
 11
314.383
 21
149.33
  0
LINE
  8
0
 10
314.383
 20
149.33
 11
314.325
 21
149.492
  0
LINE
  8
0
 10
314.325
 20
149.492
 11
314.284
 21
149.659
  0
LINE
  8
0
 10
314.284
 20
149.659
 11
314.258
 21
149.828
  0
LINE
  8
0
 10
314.258
 20
149.828
 11
314.25
 21
150
  0
LINE
  8
0
 10
314.25
 20
150
 11
314.258
 21
150.172
  0
LINE
  8
0
 10
314.258
 20
150.172
 11
314.284
 21
150.341
  0
LINE
  8
0
 10
314.284
 20
150.341
 11
314.325
 21
150.508
  0
LINE
  8
0
 10
314.325
 20
150.508
 11
314.383
 21
150.67
  0
LINE
  8
0
 10
314.383
 20
150.67
 11
314.457
 21
150.825
  0
LINE
  8
0
 10
314.457
 20
150.825
 11
314.545
 21
150.972
  0
LINE
  8
0
 10
314.545
 20
150.972
 11
314.647
 21
151.11
  0
LINE
  8
0
 10
314.647
 20
151.11
 11
314.763
 21
151.237
  0
LINE
  8
0
 10
314.763
 20
151.237
 11
314.89
 21
151.353
  0
LINE
  8
0
 10
314.89
 20
151.353
 11
315.028
 21
151.455
  0
LINE
  8
0
 10
315.028
 20
151.455
 11
315.175
 21
151.543
  0
LINE
  8
0
 10
315.175
 20
151.543
 11
315.33
 21
151.617
  0
LINE
  8
0
 10
315.33
 20
151.617
 11
315.492
 21
151.675
  0
LINE
  8
0
 10
315.492
 20
151.675
 11
315.659
 21
151.716
  0
LINE
  8
0
 10
315.659
 20
151.716
 11
315.828
 21
151.742
  0
LINE
  8
0
 10
315.828
 20
151.742
 11
316
 21
151.75
  0
LINE
  8
0
 10
316
 20
151.75
 11
316.172
 21
151.742
  0
LINE
  8
0
 10
316.172
 20
151.742
 11
316.341
 21
151.716
  0
LINE
  8
0
 10
316.341
 20
151.716
 11
316.508
 21
151.675
  0
LINE
  8
0
 10
316.508
 20
151.675
 11
316.67
 21
151.617
  0
LINE
  8
0
 10
316.67
 20
151.617
 11
316.825
 21
151.543
  0
LINE
  8
0
 10
316.825
 20
151.543
 11
316.972
 21
151.455
  0
LINE
  8
0
 10
316.972
 20
151.455
 11
317.11
 21
151.353
  0
LINE
  8
0
 10
317.11
 20
151.353
 11
317.237
 21
151.237
  0
LINE
  8
0
 10
317.237
 20
151.237
 11
317.353
 21
151.11
  0
LINE
  8
0
 10
317.353
 20
151.11
 11
317.455
 21
150.972
  0
LINE
  8
0
 10
317.455
 20
150.972
 11
317.543
 21
150.825
  0
LINE
  8
0
 10
317.543
 20
150.825
 11
317.617
 21
150.67
  0
LINE
  8
0
 10
317.617
 20
150.67
 11
317.675
 21
150.508
  0
LINE
  8
0
 10
317.675
 20
150.508
 11
317.716
 21
150.341
  0
LINE
  8
0
 10
317.716
 20
150.341
 11
317.742
 21
150.172
  0
LINE
  8
0
 10
317.742
 20
150.172
 11
317.75
 21
150
  0
LINE
  8
0
 10
317.75
 20
150
 11
317.742
 21
149.828
  0
LINE
  8
0
 10
317.742
 20
149.828
 11
317.716
 21
149.659
  0
LINE
  8
0
 10
317.716
 20
149.659
 11
317.675
 21
149.492
  0
LINE
  8
0
 10
317.675
 20
149.492
 11
317.617
 21
149.33
  0
LINE
  8
0
 10
317.617
 20
149.33
 11
317.543
 21
149.175
  0
LINE
  8
0
 10
317.543
 20
149.175
 11
317.455
 21
149.028
  0
LINE
  8
0
 10
317.455
 20
149.028
 11
317.353
 21
148.89
  0
LINE
  8
0
 10
317.353
 20
148.89
 11
317.237
 21
148.763
  0
LINE
  8
0
 10
317.237
 20
148.763
 11
317.11
 21
148.647
  0
LINE
  8
0
 10
317.11
 20
148.647
 11
316.972
 21
148.545
  0
LINE
  8
0
 10
316.972
 20
148.545
 11
316.825
 21
148.457
  0
LINE
  8
0
 10
316.825
 20
148.457
 11
316.67
 21
148.383
  0
LINE
  8
0
 10
316.67
 20
148.383
 11
316.508
 21
148.325
  0
LINE
  8
0
 10
316.508
 20
148.325
 11
316.341
 21
148.284
  0
LINE
  8
0
 10
316.341
 20
148.284
 11
316.172
 21
148.258
  0
LINE
  8
0
 10
316.172
 20
148.258
 11
316
 21
148.25
  0
LINE
  8
0
 10
316
 20
148.25
 11
315.828
 21
148.258
  0
LINE
  8
0
 10
180.828
 20
148.258
 11
180.659
 21
148.284
  0
LINE
  8
0
 10
180.659
 20
148.284
 11
180.492
 21
148.325
  0
LINE
  8
0
 10
180.492
 20
148.325
 11
180.33
 21
148.383
  0
LINE
  8
0
 10
180.33
 20
148.383
 11
180.175
 21
148.457
  0
LINE
  8
0
 10
180.175
 20
148.457
 11
180.028
 21
148.545
  0
LINE
  8
0
 10
180.028
 20
148.545
 11
179.89
 21
148.647
  0
LINE
  8
0
 10
179.89
 20
148.647
 11
179.763
 21
148.763
  0
LINE
  8
0
 10
179.763
 20
148.763
 11
179.647
 21
148.89
  0
LINE
  8
0
 10
179.647
 20
148.89
 11
179.545
 21
149.028
  0
LINE
  8
0
 10
179.545
 20
149.028
 11
179.457
 21
149.175
  0
LINE
  8
0
 10
179.457
 20
149.175
 11
179.383
 21
149.33
  0
LINE
  8
0
 10
179.383
 20
149.33
 11
179.325
 21
149.492
  0
LINE
  8
0
 10
179.325
 20
149.492
 11
179.284
 21
149.659
  0
LINE
  8
0
 10
179.284
 20
149.659
 11
179.258
 21
149.828
  0
LINE
  8
0
 10
179.258
 20
149.828
 11
179.25
 21
150
  0
LINE
  8
0
 10
179.25
 20
150
 11
179.258
 21
150.172
  0
LINE
  8
0
 10
179.258
 20
150.172
 11
179.284
 21
150.341
  0
LINE
  8
0
 10
179.284
 20
150.341
 11
179.325
 21
150.508
  0
LINE
  8
0
 10
179.325
 20
150.508
 11
179.383
 21
150.67
  0
LINE
  8
0
 10
179.383
 20
150.67
 11
179.457
 21
150.825
  0
LINE
  8
0
 10
179.457
 20
150.825
 11
179.545
 21
150.972
  0
LINE
  8
0
 10
179.545
 20
150.972
 11
179.647
 21
151.11
  0
LINE
  8
0
 10
179.647
 20
151.11
 11
179.763
 21
151.237
  0
LINE
  8
0
 10
179.763
 20
151.237
 11
179.89
 21
151.353
  0
LINE
  8
0
 10
179.89
 20
151.353
 11
180.028
 21
151.455
  0
LINE
  8
0
 10
180.028
 20
151.455
 11
180.175
 21
151.543
  0
LINE
  8
0
 10
180.175
 20
151.543
 11
180.33
 21
151.617
  0
LINE
  8
0
 10
180.33
 20
151.617
 11
180.492
 21
151.675
  0
LINE
  8
0
 10
180.492
 20
151.675
 11
180.659
 21
151.716
  0
LINE
  8
0
 10
180.659
 20
151.716
 11
180.828
 21
151.742
  0
LINE
  8
0
 10
180.828
 20
151.742
 11
181
 21
151.75
  0
LINE
  8
0
 10
181
 20
151.75
 11
181.172
 21
151.742
  0
LINE
  8
0
 10
181.172
 20
151.742
 11
181.341
 21
151.716
  0
LINE
  8
0
 10
181.341
 20
151.716
 11
181.508
 21
151.675
  0
LINE
  8
0
 10
181.508
 20
151.675
 11
181.67
 21
151.617
  0
LINE
  8
0
 10
181.67
 20
151.617
 11
181.825
 21
151.543
  0
LINE
  8
0
 10
181.825
 20
151.543
 11
181.972
 21
151.455
  0
LINE
  8
0
 10
181.972
 20
151.455
 11
182.11
 21
151.353
  0
LINE
  8
0
 10
182.11
 20
151.353
 11
182.237
 21
151.237
  0
LINE
  8
0
 10
182.237
 20
151.237
 11
182.353
 21
151.11
  0
LINE
  8
0
 10
182.353
 20
151.11
 11
182.455
 21
150.972
  0
LINE
  8
0
 10
182.455
 20
150.972
 11
182.543
 21
150.825
  0
LINE
  8
0
 10
182.543
 20
150.825
 11
182.617
 21
150.67
  0
LINE
  8
0
 10
182.617
 20
150.67
 11
182.675
 21
150.508
  0
LINE
  8
0
 10
182.675
 20
150.508
 11
182.716
 21
150.341
  0
LINE
  8
0
 10
182.716
 20
150.341
 11
182.742
 21
150.172
  0
LINE
  8
0
 10
182.742
 20
150.172
 11
182.75
 21
150
  0
LINE
  8
0
 10
182.75
 20
150
 11
182.742
 21
149.828
  0
LINE
  8
0
 10
182.742
 20
149.828
 11
182.716
 21
149.659
  0
LINE
  8
0
 10
182.716
 20
149.659
 11
182.675
 21
149.492
  0
LINE
  8
0
 10
182.675
 20
149.492
 11
182.617
 21
149.33
  0
LINE
  8
0
 10
182.617
 20
149.33
 11
182.543
 21
149.175
  0
LINE
  8
0
 10
182.543
 20
149.175
 11
182.455
 21
149.028
  0
LINE
  8
0
 10
182.455
 20
149.028
 11
182.353
 21
148.89
  0
LINE
  8
0
 10
182.353
 20
148.89
 11
182.237
 21
148.763
  0
LINE
  8
0
 10
182.237
 20
148.763
 11
182.11
 21
148.647
  0
LINE
  8
0
 10
182.11
 20
148.647
 11
181.972
 21
148.545
  0
LINE
  8
0
 10
181.972
 20
148.545
 11
181.825
 21
148.457
  0
LINE
  8
0
 10
181.825
 20
148.457
 11
181.67
 21
148.383
  0
LINE
  8
0
 10
181.67
 20
148.383
 11
181.508
 21
148.325
  0
LINE
  8
0
 10
181.508
 20
148.325
 11
181.341
 21
148.284
  0
LINE
  8
0
 10
181.341
 20
148.284
 11
181.172
 21
148.258
  0
LINE
  8
0
 10
181.172
 20
148.258
 11
181
 21
148.25
  0
LINE
  8
0
 10
181
 20
148.25
 11
180.828
 21
148.258
  0
LINE
  8
0
 10
190
 20
129
 11
190
 21
141
  0
LINE
  8
0
 10
190
 20
141
 11
202
 21
141
  0
LINE
  8
0
 10
202
 20
141
 11
202
 21
129
  0
LINE
  8
0
 10
202
 20
129
 11
190
 21
129
  0
LINE
  8
0
 10
205
 20
129
 11
205
 21
141
  0
LINE
  8
0
 10
205
 20
141
 11
217
 21
141
  0
LINE
  8
0
 10
217
 20
141
 11
217
 21
129
  0
LINE
  8
0
 10
217
 20
129
 11
205
 21
129
  0
LINE
  8
0
 10
235
 20
129
 11
235
 21
141
  0
LINE
  8
0
 10
235
 20
141
 11
247
 21
141
  0
LINE
  8
0
 10
247
 20
141
 11
247
 21
129
  0
LINE
  8
0
 10
247
 20
129
 11
235
 21
129
  0
LINE
  8
0
 10
250
 20
129
 11
250
 21
141
  0
LINE
  8
0
 10
250
 20
141
 11
262
 21
141
  0
LINE
  8
0
 10
262
 20
141
 11
262
 21
129
  0
LINE
  8
0
 10
262
 20
129
 11
250
 21
129
  0
LINE
  8
0
 10
220
 20
129
 11
220
 21
141
  0
LINE
  8
0
 10
220
 20
141
 11
232
 21
141
  0
LINE
  8
0
 10
232
 20
141
 11
232
 21
129
  0
LINE
  8
0
 10
232
 20
129
 11
220
 21
129
  0
LINE
  8
0
 10
265
 20
129
 11
265
 21
141
  0
LINE
  8
0
 10
265
 20
141
 11
277
 21
141
  0
LINE
  8
0
 10
277
 20
141
 11
277
 21
129
  0
LINE
  8
0
 10
277
 20
129
 11
265
 21
129
  0
LINE
  8
0
 10
280
 20
129
 11
280
 21
141
  0
LINE
  8
0
 10
280
 20
141
 11
292
 21
141
  0
LINE
  8
0
 10
292
 20
141
 11
292
 21
129
  0
LINE
  8
0
 10
292
 20
129
 11
280
 21
129
  0
LINE
  8
0
 10
295
 20
129
 11
295
 21
141
  0
LINE
  8
0
 10
295
 20
141
 11
307
 21
141
  0
LINE
  8
0
 10
307
 20
141
 11
307
 21
129
  0
LINE
  8
0
 10
307
 20
129
 11
295
 21
129
  0
LINE
  8
0
 10
310
 20
129
 11
310
 21
141
  0
LINE
  8
0
 10
310
 20
141
 11
322
 21
141
  0
LINE
  8
0
 10
322
 20
141
 11
322
 21
129
  0
LINE
  8
0
 10
322
 20
129
 11
310
 21
129
  0
LINE
  8
0
 10
175
 20
129
 11
175
 21
141
  0
LINE
  8
0
 10
175
 20
141
 11
187
 21
141
  0
LINE
  8
0
 10
187
 20
141
 11
187
 21
129
  0
LINE
  8
0
 10
187
 20
129
 11
175
 21
129
  0
LINE
  8
0
 10
205
 20
114
 11
205
 21
126
  0
LINE
  8
0
 10
205
 20
126
 11
217
 21
126
  0
LINE
  8
0
 10
217
 20
126
 11
217
 21
114
  0
LINE
  8
0
 10
217
 20
114
 11
205
 21
114
  0
LINE
  8
0
 10
190
 20
114
 11
190
 21
126
  0
LINE
  8
0
 10
190
 20
126
 11
202
 21
126
  0
LINE
  8
0
 10
202
 20
126
 11
202
 21
114
  0
LINE
  8
0
 10
202
 20
114
 11
190
 21
114
  0
LINE
  8
0
 10
310
 20
114
 11
310
 21
126
  0
LINE
  8
0
 10
310
 20
126
 11
322
 21
126
  0
LINE
  8
0
 10
322
 20
126
 11
322
 21
114
  0
LINE
  8
0
 10
322
 20
114
 11
310
 21
114
  0
LINE
  8
0
 10
295
 20
114
 11
295
 21
126
  0
LINE
  8
0
 10
295
 20
126
 11
307
 21
126
  0
LINE
  8
0
 10
307
 20
126
 11
307
 21
114
  0
LINE
  8
0
 10
307
 20
114
 11
295
 21
114
  0
LINE
  8
0
 10
175
 20
114
 11
175
 21
126
  0
LINE
  8
0
 10
175
 20
126
 11
187
 21
126
  0
LINE
  8
0
 10
187
 20
126
 11
187
 21
114
  0
LINE
  8
0
 10
187
 20
114
 11
175
 21
114
  0
LINE
  8
0
 10
235
 20
114
 11
235
 21
126
  0
LINE
  8
0
 10
235
 20
126
 11
247
 21
126
  0
LINE
  8
0
 10
247
 20
126
 11
247
 21
114
  0
LINE
  8
0
 10
247
 20
114
 11
235
 21
114
  0
LINE
  8
0
 10
250
 20
114
 11
250
 21
126
  0
LINE
  8
0
 10
250
 20
126
 11
262
 21
126
  0
LINE
  8
0
 10
262
 20
126
 11
262
 21
114
  0
LINE
  8
0
 10
262
 20
114
 11
250
 21
114
  0
LINE
  8
0
 10
220
 20
114
 11
220
 21
126
  0
LINE
  8
0
 10
220
 20
126
 11
232
 21
126
  0
LINE
  8
0
 10
232
 20
126
 11
232
 21
114
  0
LINE
  8
0
 10
232
 20
114
 11
220
 21
114
  0
LINE
  8
0
 10
265
 20
114
 11
265
 21
126
  0
LINE
  8
0
 10
265
 20
126
 11
277
 21
126
  0
LINE
  8
0
 10
277
 20
126
 11
277
 21
114
  0
LINE
  8
0
 10
277
 20
114
 11
265
 21
114
  0
LINE
  8
0
 10
280
 20
114
 11
280
 21
126
  0
LINE
  8
0
 10
280
 20
126
 11
292
 21
126
  0
LINE
  8
0
 10
292
 20
126
 11
292
 21
114
  0
LINE
  8
0
 10
292
 20
114
 11
280
 21
114
  0
LINE
  8
0
 10
190
 20
99
 11
190
 21
111
  0
LINE
  8
0
 10
190
 20
111
 11
202
 21
111
  0
LINE
  8
0
 10
202
 20
111
 11
202
 21
99
  0
LINE
  8
0
 10
202
 20
99
 11
190
 21
99
  0
LINE
  8
0
 10
310
 20
99
 11
310
 21
111
  0
LINE
  8
0
 10
310
 20
111
 11
322
 21
111
  0
LINE
  8
0
 10
322
 20
111
 11
322
 21
99
  0
LINE
  8
0
 10
322
 20
99
 11
310
 21
99
  0
LINE
  8
0
 10
295
 20
99
 11
295
 21
111
  0
LINE
  8
0
 10
295
 20
111
 11
307
 21
111
  0
LINE
  8
0
 10
307
 20
111
 11
307
 21
99
  0
LINE
  8
0
 10
307
 20
99
 11
295
 21
99
  0
LINE
  8
0
 10
205
 20
99
 11
205
 21
111
  0
LINE
  8
0
 10
205
 20
111
 11
217
 21
111
  0
LINE
  8
0
 10
217
 20
111
 11
217
 21
99
  0
LINE
  8
0
 10
217
 20
99
 11
205
 21
99
  0
LINE
  8
0
 10
280
 20
99
 11
280
 21
111
  0
LINE
  8
0
 10
280
 20
111
 11
292
 21
111
  0
LINE
  8
0
 10
292
 20
111
 11
292
 21
99
  0
LINE
  8
0
 10
292
 20
99
 11
280
 21
99
  0
LINE
  8
0
 10
175
 20
99
 11
175
 21
111
  0
LINE
  8
0
 10
175
 20
111
 11
187
 21
111
  0
LINE
  8
0
 10
187
 20
111
 11
187
 21
99
  0
LINE
  8
0
 10
187
 20
99
 11
175
 21
99
  0
LINE
  8
0
 10
265
 20
99
 11
265
 21
111
  0
LINE
  8
0
 10
265
 20
111
 11
277
 21
111
  0
LINE
  8
0
 10
277
 20
111
 11
277
 21
99
  0
LINE
  8
0
 10
277
 20
99
 11
265
 21
99
  0
LINE
  8
0
 10
220
 20
99
 11
220
 21
111
  0
LINE
  8
0
 10
220
 20
111
 11
232
 21
111
  0
LINE
  8
0
 10
232
 20
111
 11
232
 21
99
  0
LINE
  8
0
 10
232
 20
99
 11
220
 21
99
  0
LINE
  8
0
 10
250
 20
99
 11
250
 21
111
  0
LINE
  8
0
 10
250
 20
111
 11
262
 21
111
  0
LINE
  8
0
 10
262
 20
111
 11
262
 21
99
  0
LINE
  8
0
 10
262
 20
99
 11
250
 21
99
  0
LINE
  8
0
 10
235
 20
99
 11
235
 21
111
  0
LINE
  8
0
 10
235
 20
111
 11
247
 21
111
  0
LINE
  8
0
 10
247
 20
111
 11
247
 21
99
  0
LINE
  8
0
 10
247
 20
99
 11
235
 21
99
  0
LINE
  8
0
 10
280
 20
84
 11
280
 21
96
  0
LINE
  8
0
 10
280
 20
96
 11
292
 21
96
  0
LINE
  8
0
 10
292
 20
96
 11
292
 21
84
  0
LINE
  8
0
 10
292
 20
84
 11
280
 21
84
  0
LINE
  8
0
 10
250
 20
84
 11
250
 21
96
  0
LINE
  8
0
 10
250
 20
96
 11
262
 21
96
  0
LINE
  8
0
 10
262
 20
96
 11
262
 21
84
  0
LINE
  8
0
 10
262
 20
84
 11
250
 21
84
  0
LINE
  8
0
 10
295
 20
84
 11
295
 21
96
  0
LINE
  8
0
 10
295
 20
96
 11
307
 21
96
  0
LINE
  8
0
 10
307
 20
96
 11
307
 21
84
  0
LINE
  8
0
 10
307
 20
84
 11
295
 21
84
  0
LINE
  8
0
 10
235
 20
84
 11
235
 21
96
  0
LINE
  8
0
 10
235
 20
96
 11
247
 21
96
  0
LINE
  8
0
 10
247
 20
96
 11
247
 21
84
  0
LINE
  8
0
 10
247
 20
84
 11
235
 21
84
  0
LINE
  8
0
 10
190
 20
84
 11
190
 21
96
  0
LINE
  8
0
 10
190
 20
96
 11
202
 21
96
  0
LINE
  8
0
 10
202
 20
96
 11
202
 21
84
  0
LINE
  8
0
 10
202
 20
84
 11
190
 21
84
  0
LINE
  8
0
 10
205
 20
84
 11
205
 21
96
  0
LINE
  8
0
 10
205
 20
96
 11
217
 21
96
  0
LINE
  8
0
 10
217
 20
96
 11
217
 21
84
  0
LINE
  8
0
 10
217
 20
84
 11
205
 21
84
  0
LINE
  8
0
 10
220
 20
84
 11
220
 21
96
  0
LINE
  8
0
 10
220
 20
96
 11
232
 21
96
  0
LINE
  8
0
 10
232
 20
96
 11
232
 21
84
  0
LINE
  8
0
 10
232
 20
84
 11
220
 21
84
  0
LINE
  8
0
 10
310
 20
84
 11
310
 21
96
  0
LINE
  8
0
 10
310
 20
96
 11
322
 21
96
  0
LINE
  8
0
 10
322
 20
96
 11
322
 21
84
  0
LINE
  8
0
 10
322
 20
84
 11
310
 21
84
  0
LINE
  8
0
 10
265
 20
84
 11
265
 21
96
  0
LINE
  8
0
 10
265
 20
96
 11
277
 21
96
  0
LINE
  8
0
 10
277
 20
96
 11
277
 21
84
  0
LINE
  8
0
 10
277
 20
84
 11
265
 21
84
  0
LINE
  8
0
 10
175
 20
84
 11
175
 21
96
  0
LINE
  8
0
 10
175
 20
96
 11
187
 21
96
  0
LINE
  8
0
 10
187
 20
96
 11
187
 21
84
  0
LINE
  8
0
 10
187
 20
84
 11
175
 21
84
  0
LINE
  8
0
 10
265
 20
69
 11
265
 21
81
  0
LINE
  8
0
 10
265
 20
81
 11
277
 21
81
  0
LINE
  8
0
 10
277
 20
81
 11
277
 21
69
  0
LINE
  8
0
 10
277
 20
69
 11
265
 21
69
  0
LINE
  8
0
 10
295
 20
69
 11
295
 21
81
  0
LINE
  8
0
 10
295
 20
81
 11
307
 21
81
  0
LINE
  8
0
 10
307
 20
81
 11
307
 21
69
  0
LINE
  8
0
 10
307
 20
69
 11
295
 21
69
  0
LINE
  8
0
 10
235
 20
69
 11
235
 21
81
  0
LINE
  8
0
 10
235
 20
81
 11
247
 21
81
  0
LINE
  8
0
 10
247
 20
81
 11
247
 21
69
  0
LINE
  8
0
 10
247
 20
69
 11
235
 21
69
  0
LINE
  8
0
 10
190
 20
69
 11
190
 21
81
  0
LINE
  8
0
 10
190
 20
81
 11
202
 21
81
  0
LINE
  8
0
 10
202
 20
81
 11
202
 21
69
  0
LINE
  8
0
 10
202
 20
69
 11
190
 21
69
  0
LINE
  8
0
 10
280
 20
69
 11
280
 21
81
  0
LINE
  8
0
 10
280
 20
81
 11
292
 21
81
  0
LINE
  8
0
 10
292
 20
81
 11
292
 21
69
  0
LINE
  8
0
 10
292
 20
69
 11
280
 21
69
  0
LINE
  8
0
 10
205
 20
69
 11
205
 21
81
  0
LINE
  8
0
 10
205
 20
81
 11
217
 21
81
  0
LINE
  8
0
 10
217
 20
81
 11
217
 21
69
  0
LINE
  8
0
 10
217
 20
69
 11
205
 21
69
  0
LINE
  8
0
 10
220
 20
69
 11
220
 21
81
  0
LINE
  8
0
 10
220
 20
81
 11
232
 21
81
  0
LINE
  8
0
 10
232
 20
81
 11
232
 21
69
  0
LINE
  8
0
 10
232
 20
69
 11
220
 21
69
  0
LINE
  8
0
 10
175
 20
69
 11
175
 21
81
  0
LINE
  8
0
 10
175
 20
81
 11
187
 21
81
  0
LINE
  8
0
 10
187
 20
81
 11
187
 21
69
  0
LINE
  8
0
 10
187
 20
69
 11
175
 21
69
  0
LINE
  8
0
 10
250
 20
69
 11
250
 21
81
  0
LINE
  8
0
 10
250
 20
81
 11
262
 21
81
  0
LINE
  8
0
 10
262
 20
81
 11
262
 21
69
  0
LINE
  8
0
 10
262
 20
69
 11
250
 21
69
  0
LINE
  8
0
 10
310
 20
69
 11
310
 21
81
  0
LINE
  8
0
 10
310
 20
81
 11
322
 21
81
  0
LINE
  8
0
 10
322
 20
81
 11
322
 21
69
  0
LINE
  8
0
 10
322
 20
69
 11
310
 21
69
  0
LINE
  8
0
 10
250
 20
54
 11
250
 21
66
  0
LINE
  8
0
 10
250
 20
66
 11
262
 21
66
  0
LINE
  8
0
 10
262
 20
66
 11
262
 21
54
  0
LINE
  8
0
 10
262
 20
54
 11
250
 21
54
  0
LINE
  8
0
 10
175
 20
54
 11
175
 21
66
  0
LINE
  8
0
 10
175
 20
66
 11
187
 21
66
  0
LINE
  8
0
 10
187
 20
66
 11
187
 21
54
  0
LINE
  8
0
 10
187
 20
54
 11
175
 21
54
  0
LINE
  8
0
 10
310
 20
54
 11
310
 21
66
  0
LINE
  8
0
 10
310
 20
66
 11
322
 21
66
  0
LINE
  8
0
 10
322
 20
66
 11
322
 21
54
  0
LINE
  8
0
 10
322
 20
54
 11
310
 21
54
  0
LINE
  8
0
 10
295
 20
54
 11
295
 21
66
  0
LINE
  8
0
 10
295
 20
66
 11
307
 21
66
  0
LINE
  8
0
 10
307
 20
66
 11
307
 21
54
  0
LINE
  8
0
 10
307
 20
54
 11
295
 21
54
  0
LINE
  8
0
 10
235
 20
54
 11
235
 21
66
  0
LINE
  8
0
 10
235
 20
66
 11
247
 21
66
  0
LINE
  8
0
 10
247
 20
66
 11
247
 21
54
  0
LINE
  8
0
 10
247
 20
54
 11
235
 21
54
  0
LINE
  8
0
 10
280
 20
54
 11
280
 21
66
  0
LINE
  8
0
 10
280
 20
66
 11
292
 21
66
  0
LINE
  8
0
 10
292
 20
66
 11
292
 21
54
  0
LINE
  8
0
 10
292
 20
54
 11
280
 21
54
  0
LINE
  8
0
 10
220
 20
54
 11
220
 21
66
  0
LINE
  8
0
 10
220
 20
66
 11
232
 21
66
  0
LINE
  8
0
 10
232
 20
66
 11
232
 21
54
  0
LINE
  8
0
 10
232
 20
54
 11
220
 21
54
  0
LINE
  8
0
 10
205
 20
54
 11
205
 21
66
  0
LINE
  8
0
 10
205
 20
66
 11
217
 21
66
  0
LINE
  8
0
 10
217
 20
66
 11
217
 21
54
  0
LINE
  8
0
 10
217
 20
54
 11
205
 21
54
  0
LINE
  8
0
 10
265
 20
54
 11
265
 21
66
  0
LINE
  8
0
 10
265
 20
66
 11
277
 21
66
  0
LINE
  8
0
 10
277
 20
66
 11
277
 21
54
  0
LINE
  8
0
 10
277
 20
54
 11
265
 21
54
  0
LINE
  8
0
 10
190
 20
54
 11
190
 21
66
  0
LINE
  8
0
 10
190
 20
66
 11
202
 21
66
  0
LINE
  8
0
 10
202
 20
66
 11
202
 21
54
  0
LINE
  8
0
 10
202
 20
54
 11
190
 21
54
  0
LINE
  8
0
 10
250
 20
39
 11
250
 21
51
  0
LINE
  8
0
 10
250
 20
51
 11
262
 21
51
  0
LINE
  8
0
 10
262
 20
51
 11
262
 21
39
  0
LINE
  8
0
 10
262
 20
39
 11
250
 21
39
  0
LINE
  8
0
 10
265
 20
39
 11
265
 21
51
  0
LINE
  8
0
 10
265
 20
51
 11
277
 21
51
  0
LINE
  8
0
 10
277
 20
51
 11
277
 21
39
  0
LINE
  8
0
 10
277
 20
39
 11
265
 21
39
  0
LINE
  8
0
 10
205
 20
39
 11
205
 21
51
  0
LINE
  8
0
 10
205
 20
51
 11
217
 21
51
  0
LINE
  8
0
 10
217
 20
51
 11
217
 21
39
  0
LINE
  8
0
 10
217
 20
39
 11
205
 21
39
  0
LINE
  8
0
 10
310
 20
39
 11
310
 21
51
  0
LINE
  8
0
 10
310
 20
51
 11
322
 21
51
  0
LINE
  8
0
 10
322
 20
51
 11
322
 21
39
  0
LINE
  8
0
 10
322
 20
39
 11
310
 21
39
  0
LINE
  8
0
 10
280
 20
39
 11
280
 21
51
  0
LINE
  8
0
 10
280
 20
51
 11
292
 21
51
  0
LINE
  8
0
 10
292
 20
51
 11
292
 21
39
  0
LINE
  8
0
 10
292
 20
39
 11
280
 21
39
  0
LINE
  8
0
 10
235
 20
39
 11
235
 21
51
  0
LINE
  8
0
 10
235
 20
51
 11
247
 21
51
  0
LINE
  8
0
 10
247
 20
51
 11
247
 21
39
  0
LINE
  8
0
 10
247
 20
39
 11
235
 21
39
  0
LINE
  8
0
 10
175
 20
39
 11
175
 21
51
  0
LINE
  8
0
 10
175
 20
51
 11
187
 21
51
  0
LINE
  8
0
 10
187
 20
51
 11
187
 21
39
  0
LINE
  8
0
 10
187
 20
39
 11
175
 21
39
  0
LINE
  8
0
 10
190
 20
39
 11
190
 21
51
  0
LINE
  8
0
 10
190
 20
51
 11
202
 21
51
  0
LINE
  8
0
 10
202
 20
51
 11
202
 21
39
  0
LINE
  8
0
 10
202
 20
39
 11
190
 21
39
  0
LINE
  8
0
 10
220
 20
39
 11
220
 21
51
  0
LINE
  8
0
 10
220
 20
51
 11
232
 21
51
  0
LINE
  8
0
 10
232
 20
51
 11
232
 21
39
  0
LINE
  8
0
 10
232
 20
39
 11
220
 21
39
  0
LINE
  8
0
 10
295
 20
39
 11
295
 21
51
  0
LINE
  8
0
 10
295
 20
51
 11
307
 21
51
  0
LINE
  8
0
 10
307
 20
51
 11
307
 21
39
  0
LINE
  8
0
 10
307
 20
39
 11
295
 21
39
  0
LINE
  8
0
 10
310
 20
24
 11
310
 21
36
  0
LINE
  8
0
 10
310
 20
36
 11
322
 21
36
  0
LINE
  8
0
 10
322
 20
36
 11
322
 21
24
  0
LINE
  8
0
 10
322
 20
24
 11
310
 21
24
  0
LINE
  8
0
 10
295
 20
24
 11
295
 21
36
  0
LINE
  8
0
 10
295
 20
36
 11
307
 21
36
  0
LINE
  8
0
 10
307
 20
36
 11
307
 21
24
  0
LINE
  8
0
 10
307
 20
24
 11
295
 21
24
  0
LINE
  8
0
 10
220
 20
24
 11
220
 21
36
  0
LINE
  8
0
 10
220
 20
36
 11
232
 21
36
  0
LINE
  8
0
 10
232
 20
36
 11
232
 21
24
  0
LINE
  8
0
 10
232
 20
24
 11
220
 21
24
  0
LINE
  8
0
 10
190
 20
24
 11
190
 21
36
  0
LINE
  8
0
 10
190
 20
36
 11
202
 21
36
  0
LINE
  8
0
 10
202
 20
36
 11
202
 21
24
  0
LINE
  8
0
 10
202
 20
24
 11
190
 21
24
  0
LINE
  8
0
 10
280
 20
24
 11
280
 21
36
  0
LINE
  8
0
 10
280
 20
36
 11
292
 21
36
  0
LINE
  8
0
 10
292
 20
36
 11
292
 21
24
  0
LINE
  8
0
 10
292
 20
24
 11
280
 21
24
  0
LINE
  8
0
 10
235
 20
24
 11
235
 21
36
  0
LINE
  8
0
 10
235
 20
36
 11
247
 21
36
  0
LINE
  8
0
 10
247
 20
36
 11
247
 21
24
  0
LINE
  8
0
 10
247
 20
24
 11
235
 21
24
  0
LINE
  8
0
 10
175
 20
24
 11
175
 21
36
  0
LINE
  8
0
 10
175
 20
36
 11
187
 21
36
  0
LINE
  8
0
 10
187
 20
36
 11
187
 21
24
  0
LINE
  8
0
 10
187
 20
24
 11
175
 21
24
  0
LINE
  8
0
 10
250
 20
24
 11
250
 21
36
  0
LINE
  8
0
 10
250
 20
36
 11
262
 21
36
  0
LINE
  8
0
 10
262
 20
36
 11
262
 21
24
  0
LINE
  8
0
 10
262
 20
24
 11
250
 21
24
  0
LINE
  8
0
 10
205
 20
24
 11
205
 21
36
  0
LINE
  8
0
 10
205
 20
36
 11
217
 21
36
  0
LINE
  8
0
 10
217
 20
36
 11
217
 21
24
  0
LINE
  8
0
 10
217
 20
24
 11
205
 21
24
  0
LINE
  8
0
 10
265
 20
24
 11
265
 21
36
  0
LINE
  8
0
 10
265
 20
36
 11
277
 21
36
  0
LINE
  8
0
 10
277
 20
36
 11
277
 21
24
  0
LINE
  8
0
 10
277
 20
24
 11
265
 21
24
  0
LINE
  8
0
 10
295
 20
9
 11
295
 21
21
  0
LINE
  8
0
 10
295
 20
21
 11
307
 21
21
  0
LINE
  8
0
 10
307
 20
21
 11
307
 21
9
  0
LINE
  8
0
 10
307
 20
9
 11
295
 21
9
  0
LINE
  8
0
 10
190
 20
9
 11
190
 21
21
  0
LINE
  8
0
 10
190
 20
21
 11
202
 21
21
  0
LINE
  8
0
 10
202
 20
21
 11
202
 21
9
  0
LINE
  8
0
 10
202
 20
9
 11
190
 21
9
  0
LINE
  8
0
 10
280
 20
9
 11
280
 21
21
  0
LINE
  8
0
 10
280
 20
21
 11
292
 21
21
  0
LINE
  8
0
 10
292
 20
21
 11
292
 21
9
  0
LINE
  8
0
 10
292
 20
9
 11
280
 21
9
  0
LINE
  8
0
 10
220
 20
9
 11
220
 21
21
  0
LINE
  8
0
 10
220
 20
21
 11
232
 21
21
  0
LINE
  8
0
 10
232
 20
21
 11
232
 21
9
  0
LINE
  8
0
 10
232
 20
9
 11
220
 21
9
  0
LINE
  8
0
 10
205
 20
9
 11
205
 21
21
  0
LINE
  8
0
 10
205
 20
21
 11
217
 21
21
  0
LINE
  8
0
 10
217
 20
21
 11
217
 21
9
  0
LINE
  8
0
 10
217
 20
9
 11
205
 21
9
  0
LINE
  8
0
 10
250
 20
9
 11
250
 21
21
  0
LINE
  8
0
 10
250
 20
21
 11
262
 21
21
  0
LINE
  8
0
 10
262
 20
21
 11
262
 21
9
  0
LINE
  8
0
 10
262
 20
9
 11
250
 21
9
  0
LINE
  8
0
 10
235
 20
9
 11
235
 21
21
  0
LINE
  8
0
 10
235
 20
21
 11
247
 21
21
  0
LINE
  8
0
 10
247
 20
21
 11
247
 21
9
  0
LINE
  8
0
 10
247
 20
9
 11
235
 21
9
  0
LINE
  8
0
 10
265
 20
9
 11
265
 21
21
  0
LINE
  8
0
 10
265
 20
21
 11
277
 21
21
  0
LINE
  8
0
 10
277
 20
21
 11
277
 21
9
  0
LINE
  8
0
 10
277
 20
9
 11
265
 21
9
  0
LINE
  8
0
 10
315.828
 20
13.2584
 11
315.659
 21
13.2836
  0
LINE
  8
0
 10
315.659
 20
13.2836
 11
315.492
 21
13.3253
  0
LINE
  8
0
 10
315.492
 20
13.3253
 11
315.33
 21
13.3832
  0
LINE
  8
0
 10
315.33
 20
13.3832
 11
315.175
 21
13.4566
  0
LINE
  8
0
 10
315.175
 20
13.4566
 11
315.028
 21
13.5449
  0
LINE
  8
0
 10
315.028
 20
13.5449
 11
314.89
 21
13.6472
  0
LINE
  8
0
 10
314.89
 20
13.6472
 11
314.763
 21
13.7626
  0
LINE
  8
0
 10
314.763
 20
13.7626
 11
314.647
 21
13.8898
  0
LINE
  8
0
 10
314.647
 20
13.8898
 11
314.545
 21
14.0277
  0
LINE
  8
0
 10
314.545
 20
14.0277
 11
314.457
 21
14.175
  0
LINE
  8
0
 10
314.457
 20
14.175
 11
314.383
 21
14.3303
  0
LINE
  8
0
 10
314.383
 20
14.3303
 11
314.325
 21
14.492
  0
LINE
  8
0
 10
314.325
 20
14.492
 11
314.284
 21
14.6586
  0
LINE
  8
0
 10
314.284
 20
14.6586
 11
314.258
 21
14.8285
  0
LINE
  8
0
 10
314.258
 20
14.8285
 11
314.25
 21
15
  0
LINE
  8
0
 10
314.25
 20
15
 11
314.258
 21
15.1715
  0
LINE
  8
0
 10
314.258
 20
15.1715
 11
314.284
 21
15.3414
  0
LINE
  8
0
 10
314.284
 20
15.3414
 11
314.325
 21
15.508
  0
LINE
  8
0
 10
314.325
 20
15.508
 11
314.383
 21
15.6697
  0
LINE
  8
0
 10
314.383
 20
15.6697
 11
314.457
 21
15.8249
  0
LINE
  8
0
 10
314.457
 20
15.8249
 11
314.545
 21
15.9722
  0
LINE
  8
0
 10
314.545
 20
15.9722
 11
314.647
 21
16.1102
  0
LINE
  8
0
 10
314.647
 20
16.1102
 11
314.763
 21
16.2374
  0
LINE
  8
0
 10
314.763
 20
16.2374
 11
314.89
 21
16.3528
  0
LINE
  8
0
 10
314.89
 20
16.3528
 11
315.028
 21
16.4551
  0
LINE
  8
0
 10
315.028
 20
16.4551
 11
315.175
 21
16.5434
  0
LINE
  8
0
 10
315.175
 20
16.5434
 11
315.33
 21
16.6168
  0
LINE
  8
0
 10
315.33
 20
16.6168
 11
315.492
 21
16.6746
  0
LINE
  8
0
 10
315.492
 20
16.6746
 11
315.659
 21
16.7164
  0
LINE
  8
0
 10
315.659
 20
16.7164
 11
315.828
 21
16.7416
  0
LINE
  8
0
 10
315.828
 20
16.7416
 11
316
 21
16.75
  0
LINE
  8
0
 10
316
 20
16.75
 11
316.172
 21
16.7416
  0
LINE
  8
0
 10
316.172
 20
16.7416
 11
316.341
 21
16.7164
  0
LINE
  8
0
 10
316.341
 20
16.7164
 11
316.508
 21
16.6746
  0
LINE
  8
0
 10
316.508
 20
16.6746
 11
316.67
 21
16.6168
  0
LINE
  8
0
 10
316.67
 20
16.6168
 11
316.825
 21
16.5434
  0
LINE
  8
0
 10
316.825
 20
16.5434
 11
316.972
 21
16.4551
  0
LINE
  8
0
 10
316.972
 20
16.4551
 11
317.11
 21
16.3528
  0
LINE
  8
0
 10
317.11
 20
16.3528
 11
317.237
 21
16.2374
  0
LINE
  8
0
 10
317.237
 20
16.2374
 11
317.353
 21
16.1102
  0
LINE
  8
0
 10
317.353
 20
16.1102
 11
317.455
 21
15.9722
  0
LINE
  8
0
 10
317.455
 20
15.9722
 11
317.543
 21
15.8249
  0
LINE
  8
0
 10
317.543
 20
15.8249
 11
317.617
 21
15.6697
  0
LINE
  8
0
 10
317.617
 20
15.6697
 11
317.675
 21
15.508
  0
LINE
  8
0
 10
317.675
 20
15.508
 11
317.716
 21
15.3414
  0
LINE
  8
0
 10
317.716
 20
15.3414
 11
317.742
 21
15.1715
  0
LINE
  8
0
 10
317.742
 20
15.1715
 11
317.75
 21
15
  0
LINE
  8
0
 10
317.75
 20
15
 11
317.742
 21
14.8285
  0
LINE
  8
0
 10
317.742
 20
14.8285
 11
317.716
 21
14.6586
  0
LINE
  8
0
 10
317.716
 20
14.6586
 11
317.675
 21
14.492
  0
LINE
  8
0
 10
317.675
 20
14.492
 11
317.617
 21
14.3303
  0
LINE
  8
0
 10
317.617
 20
14.3303
 11
317.543
 21
14.175
  0
LINE
  8
0
 10
317.543
 20
14.175
 11
317.455
 21
14.0277
  0
LINE
  8
0
 10
317.455
 20
14.0277
 11
317.353
 21
13.8898
  0
LINE
  8
0
 10
317.353
 20
13.8898
 11
317.237
 21
13.7626
  0
LINE
  8
0
 10
317.237
 20
13.7626
 11
317.11
 21
13.6472
  0
LINE
  8
0
 10
317.11
 20
13.6472
 11
316.972
 21
13.5449
  0
LINE
  8
0
 10
316.972
 20
13.5449
 11
316.825
 21
13.4566
  0
LINE
  8
0
 10
316.825
 20
13.4566
 11
316.67
 21
13.3832
  0
LINE
  8
0
 10
316.67
 20
13.3832
 11
316.508
 21
13.3253
  0
LINE
  8
0
 10
316.508
 20
13.3253
 11
316.341
 21
13.2836
  0
LINE
  8
0
 10
316.341
 20
13.2836
 11
316.172
 21
13.2584
  0
LINE
  8
0
 10
316.172
 20
13.2584
 11
316
 21
13.25
  0
LINE
  8
0
 10
316
 20
13.25
 11
315.828
 21
13.2584
  0
LINE
  8
0
 10
180.828
 20
13.2584
 11
180.659
 21
13.2836
  0
LINE
  8
0
 10
180.659
 20
13.2836
 11
180.492
 21
13.3253
  0
LINE
  8
0
 10
180.492
 20
13.3253
 11
180.33
 21
13.3832
  0
LINE
  8
0
 10
180.33
 20
13.3832
 11
180.175
 21
13.4566
  0
LINE
  8
0
 10
180.175
 20
13.4566
 11
180.028
 21
13.5449
  0
LINE
  8
0
 10
180.028
 20
13.5449
 11
179.89
 21
13.6472
  0
LINE
  8
0
 10
179.89
 20
13.6472
 11
179.763
 21
13.7626
  0
LINE
  8
0
 10
179.763
 20
13.7626
 11
179.647
 21
13.8898
  0
LINE
  8
0
 10
179.647
 20
13.8898
 11
179.545
 21
14.0277
  0
LINE
  8
0
 10
179.545
 20
14.0277
 11
179.457
 21
14.175
  0
LINE
  8
0
 10
179.457
 20
14.175
 11
179.383
 21
14.3303
  0
LINE
  8
0
 10
179.383
 20
14.3303
 11
179.325
 21
14.492
  0
LINE
  8
0
 10
179.325
 20
14.492
 11
179.284
 21
14.6586
  0
LINE
  8
0
 10
179.284
 20
14.6586
 11
179.258
 21
14.8285
  0
LINE
  8
0
 10
179.258
 20
14.8285
 11
179.25
 21
15
  0
LINE
  8
0
 10
179.25
 20
15
 11
179.258
 21
15.1715
  0
LINE
  8
0
 10
179.258
 20
15.1715
 11
179.284
 21
15.3414
  0
LINE
  8
0
 10
179.284
 20
15.3414
 11
179.325
 21
15.508
  0
LINE
  8
0
 10
179.325
 20
15.508
 11
179.383
 21
15.6697
  0
LINE
  8
0
 10
179.383
 20
15.6697
 11
179.457
 21
15.8249
  0
LINE
  8
0
 10
179.457
 20
15.8249
 11
179.545
 21
15.9722
  0
LINE
  8
0
 10
179.545
 20
15.9722
 11
179.647
 21
16.1102
  0
LINE
  8
0
 10
179.647
 20
16.1102
 11
179.763
 21
16.2374
  0
LINE
  8
0
 10
179.763
 20
16.2374
 11
179.89
 21
16.3528
  0
LINE
  8
0
 10
179.89
 20
16.3528
 11
180.028
 21
16.4551
  0
LINE
  8
0
 10
180.028
 20
16.4551
 11
180.175
 21
16.5434
  0
LINE
  8
0
 10
180.175
 20
16.5434
 11
180.33
 21
16.6168
  0
LINE
  8
0
 10
180.33
 20
16.6168
 11
180.492
 21
16.6746
  0
LINE
  8
0
 10
180.492
 20
16.6746
 11
180.659
 21
16.7164
  0
LINE
  8
0
 10
180.659
 20
16.7164
 11
180.828
 21
16.7416
  0
LINE
  8
0
 10
180.828
 20
16.7416
 11
181
 21
16.75
  0
LINE
  8
0
 10
181
 20
16.75
 11
181.172
 21
16.7416
  0
LINE
  8
0
 10
181.172
 20
16.7416
 11
181.341
 21
16.7164
  0
LINE
  8
0
 10
181.341
 20
16.7164
 11
181.508
 21
16.6746
  0
LINE
  8
0
 10
181.508
 20
16.6746
 11
181.67
 21
16.6168
  0
LINE
  8
0
 10
181.67
 20
16.6168
 11
181.825
 21
16.5434
  0
LINE
  8
0
 10
181.825
 20
16.5434
 11
181.972
 21
16.4551
  0
LINE
  8
0
 10
181.972
 20
16.4551
 11
182.11
 21
16.3528
  0
LINE
  8
0
 10
182.11
 20
16.3528
 11
182.237
 21
16.2374
  0
LINE
  8
0
 10
182.237
 20
16.2374
 11
182.353
 21
16.1102
  0
LINE
  8
0
 10
182.353
 20
16.1102
 11
182.455
 21
15.9722
  0
LINE
  8
0
 10
182.455
 20
15.9722
 11
182.543
 21
15.8249
  0
LINE
  8
0
 10
182.543
 20
15.8249
 11
182.617
 21
15.6697
  0
LINE
  8
0
 10
182.617
 20
15.6697
 11
182.675
 21
15.508
  0
LINE
  8
0
 10
182.675
 20
15.508
 11
182.716
 21
15.3414
  0
LINE
  8
0
 10
182.716
 20
15.3414
 11
182.742
 21
15.1715
  0
LINE
  8
0
 10
182.742
 20
15.1715
 11
182.75
 21
15
  0
LINE
  8
0
 10
182.75
 20
15
 11
182.742
 21
14.8285
  0
LINE
  8
0
 10
182.742
 20
14.8285
 11
182.716
 21
14.6586
  0
LINE
  8
0
 10
182.716
 20
14.6586
 11
182.675
 21
14.492
  0
LINE
  8
0
 10
182.675
 20
14.492
 11
182.617
 21
14.3303
  0
LINE
  8
0
 10
182.617
 20
14.3303
 11
182.543
 21
14.175
  0
LINE
  8
0
 10
182.543
 20
14.175
 11
182.455
 21
14.0277
  0
LINE
  8
0
 10
182.455
 20
14.0277
 11
182.353
 21
13.8898
  0
LINE
  8
0
 10
182.353
 20
13.8898
 11
182.237
 21
13.7626
  0
LINE
  8
0
 10
182.237
 20
13.7626
 11
182.11
 21
13.6472
  0
LINE
  8
0
 10
182.11
 20
13.6472
 11
181.972
 21
13.5449
  0
LINE
  8
0
 10
181.972
 20
13.5449
 11
181.825
 21
13.4566
  0
LINE
  8
0
 10
181.825
 20
13.4566
 11
181.67
 21
13.3832
  0
LINE
  8
0
 10
181.67
 20
13.3832
 11
181.508
 21
13.3253
  0
LINE
  8
0
 10
181.508
 20
13.3253
 11
181.341
 21
13.2836
  0
LINE
  8
0
 10
181.341
 20
13.2836
 11
181.172
 21
13.2584
  0
LINE
  8
0
 10
181.172
 20
13.2584
 11
181
 21
13.25
  0
LINE
  8
0
 10
181
 20
13.25
 11
180.828
 21
13.2584
  0
ENDSEC
  0
SECTION
  2
OBJECTS
  0
DICTIONARY
  0
ENDSEC
  0
EOF
