<?xml version="1.0" standalone="no"?>
<!DOCTYPE svg PUBLIC "-//W3C//DTD SVG 1.1//EN" "http://www.w3.org/Graphics/SVG/1.1/DTD/svg11.dtd">
<svg width="497mm" height="165mm" viewBox="0 -165 497 165" xmlns="http://www.w3.org/2000/svg" version="1.1">
<title>OpenSCAD Model</title>
<path d="
M 165,-165 L 0,-165 L 0,-0 L 165,-0 z
M 114,-144 L 114,-156 L 126,-156 L 126,-144 z
M 99,-144 L 99,-156 L 111,-156 L 111,-144 z
M 69,-144 L 69,-156 L 81,-156 L 81,-144 z
M 54,-144 L 54,-156 L 66,-156 L 66,-144 z
M 39,-144 L 39,-156 L 51,-156 L 51,-144 z
M 24,-144 L 24,-156 L 36,-156 L 36,-144 z
M 84,-144 L 84,-156 L 96,-156 L 96,-144 z
M 129,-144 L 129,-156 L 141,-156 L 141,-144 z
M 14.8285,-148.258 L 14.6586,-148.284 L 14.492,-148.325 L 14.3303,-148.383 L 14.175,-148.457 L 14.0277,-148.545
 L 13.8898,-148.647 L 13.7626,-148.763 L 13.6472,-148.89 L 13.5449,-149.028 L 13.4566,-149.175 L 13.3832,-149.33
 L 13.3253,-149.492 L 13.2836,-149.659 L 13.2584,-149.828 L 13.25,-150 L 13.2584,-150.172 L 13.2836,-150.341
 L 13.3253,-150.508 L 13.3832,-150.67 L 13.4566,-150.825 L 13.5449,-150.972 L 13.6472,-151.11 L 13.7626,-151.237
 L 13.8898,-151.353 L 14.0277,-151.455 L 14.175,-151.543 L 14.3303,-151.617 L 14.492,-151.675 L 14.6586,-151.716
 L 14.8285,-151.742 L 15,-151.75 L 15.1715,-151.742 L 15.3414,-151.716 L 15.508,-151.675 L 15.6697,-151.617
 L 15.8249,-151.543 L 15.9722,-151.455 L 16.1102,-151.353 L 16.2374,-151.237 L 16.3528,-151.11 L 16.4551,-150.972
 L 16.5434,-150.825 L 16.6168,-150.67 L 16.6746,-150.508 L 16.7164,-150.341 L 16.7416,-150.172 L 16.75,-150
 L 16.7416,-149.828 L 16.7164,-149.659 L 16.6746,-149.492 L 16.6168,-149.33 L 16.5434,-149.175 L 16.4551,-149.028
 L 16.3528,-148.89 L 16.2374,-148.763 L 16.1102,-148.647 L 15.9722,-148.545 L 15.8249,-148.457 L 15.6697,-148.383
 L 15.508,-148.325 L 15.3414,-148.284 L 15.1715,-148.258 L 15,-148.25 z
M 149.828,-148.258 L 149.659,-148.284 L 149.492,-148.325 L 149.33,-148.383 L 149.175,-148.457 L 149.028,-148.545
 L 148.89,-148.647 L 148.763,-148.763 L 148.647,-148.89 L 148.545,-149.028 L 148.457,-149.175 L 148.383,-149.33
 L 148.325,-149.492 L 148.284,-149.659 L 148.258,-149.828 L 148.25,-150 L 148.258,-150.172 L 148.284,-150.341
 L 148.325,-150.508 L 148.383,-150.67 L 148.457,-150.825 L 148.545,-150.972 L 148.647,-151.11 L 148.763,-151.237
 L 148.89,-151.353 L 149.028,-151.455 L 149.175,-151.543 L 149.33,-151.617 L 149.492,-151.675 L 149.659,-151.716
 L 149.828,-151.742 L 150,-151.75 L 150.172,-151.742 L 150.341,-151.716 L 150.508,-151.675 L 150.67,-151.617
 L 150.825,-151.543 L 150.972,-151.455 L 151.11,-151.353 L 151.237,-151.237 L 151.353,-151.11 L 151.455,-150.972
 L 151.543,-150.825 L 151.617,-150.67 L 151.675,-150.508 L 151.716,-150.341 L 151.742,-150.172 L 151.75,-150
 L 151.742,-149.828 L 151.716,-149.659 L 151.675,-149.492 L 151.617,-149.33 L 151.543,-149.175 L 151.455,-149.028
 L 151.353,-148.89 L 151.237,-148.763 L 151.11,-148.647 L 150.972,-148.545 L 150.825,-148.457 L 150.67,-148.383
 L 150.508,-148.325 L 150.341,-148.284 L 150.172,-148.258 L 150,-148.25 z
M 84,-129 L 84,-141 L 96,-141 L 96,-129 z
M 69,-129 L 69,-141 L 81,-141 L 81,-129 z
M 9,-129 L 9,-141 L 21,-141 L 21,-129 z
M 24,-129 L 24,-141 L 36,-141 L 36,-129 z
M 144,-129 L 144,-141 L 156,-141 L 156,-129 z
M 129,-129 L 129,-141 L 141,-141 L 141,-129 z
M 39,-129 L 39,-141 L 51,-141 L 51,-129 z
M 114,-129 L 114,-141 L 126,-141 L 126,-129 z
M 99,-129 L 99,-141 L 111,-141 L 111,-129 z
M 54,-129 L 54,-141 L 66,-141 L 66,-129 z
M 114,-114 L 114,-126 L 126,-126 L 126,-114 z
M 99,-114 L 99,-126 L 111,-126 L 111,-114 z
M 54,-114 L 54,-126 L 66,-126 L 66,-114 z
M 24,-114 L 24,-126 L 36,-126 L 36,-114 z
M 9,-114 L 9,-126 L 21,-126 L 21,-114 z
M 129,-114 L 129,-126 L 141,-126 L 141,-114 z
M 144,-114 L 144,-126 L 156,-126 L 156,-114 z
M 39,-114 L 39,-126 L 51,-126 L 51,-114 z
M 69,-114 L 69,-126 L 81,-126 L 81,-114 z
M 84,-114 L 84,-126 L 96,-126 L 96,-114 z
M 24,-99 L 24,-111 L 36,-111 L 36,-99 z
M 144,-99 L 144,-111 L 156,-111 L 156,-99 z
M 129,-99 L 129,-111 L 141,-111 L 141,-99 z
M 39,-99 L 39,-111 L 51,-111 L 51,-99 z
M 114,-99 L 114,-111 L 126,-111 L 126,-99 z
M 9,-99 L 9,-111 L 21,-111 L 21,-99 z
M 99,-99 L 99,-111 L 111,-111 L 111,-99 z
M 54,-99 L 54,-111 L 66,-111 L 66,-99 z
M 84,-99 L 84,-111 L 96,-111 L 96,-99 z
M 69,-99 L 69,-111 L 81,-111 L 81,-99 z
M 39,-84 L 39,-96 L 51,-96 L 51,-84 z
M 54,-84 L 54,-96 L 66,-96 L 66,-84 z
M 144,-84 L 144,-96 L 156,-96 L 156,-84 z
M 99,-84 L 99,-96 L 111,-96 L 111,-84 z
M 114,-84 L 114,-96 L 126,-96 L 126,-84 z
M 9,-84 L 9,-96 L 21,-96 L 21,-84 z
M 24,-84 L 24,-96 L 36,-96 L 36,-84 z
M 69,-84 L 69,-96 L 81,-96 L 81,-84 z
M 129,-84 L 129,-96 L 141,-96 L 141,-84 z
M 84,-84 L 84,-96 L 96,-96 L 96,-84 z
M 99,-69 L 99,-81 L 111,-81 L 111,-69 z
M 129,-69 L 129,-81 L 141,-81 L 141,-69 z
M 69,-69 L 69,-81 L 81,-81 L 81,-69 z
M 24,-69 L 24,-81 L 36,-81 L 36,-69 z
M 114,-69 L 114,-81 L 126,-81 L 126,-69 z
M 39,-69 L 39,-81 L 51,-81 L 51,-69 z
M 54,-69 L 54,-81 L 66,-81 L 66,-69 z
M 9,-69 L 9,-81 L 21,-81 L 21,-69 z
M 84,-69 L 84,-81 L 96,-81 L 96,-69 z
M 144,-69 L 144,-81 L 156,-81 L 156,-69 z
M 84,-54 L 84,-66 L 96,-66 L 96,-54 z
M 99,-54 L 99,-66 L 111,-66 L 111,-54 z
M 24,-54 L 24,-66 L 36,-66 L 36,-54 z
M 9,-54 L 9,-66 L 21,-66 L 21,-54 z
M 144,-54 L 144,-66 L 156,-66 L 156,-54 z
M 39,-54 L 39,-66 L 51,-66 L 51,-54 z
M 54,-54 L 54,-66 L 66,-66 L 66,-54 z
M 114,-54 L 114,-66 L 126,-66 L 126,-54 z
M 69,-54 L 69,-66 L 81,-66 L 81,-54 z
M 129,-54 L 129,-66 L 141,-66 L 141,-54 z
M 54,-39 L 54,-51 L 66,-51 L 66,-39 z
M 24,-39 L 24,-51 L 36,-51 L 36,-39 z
M 9,-39 L 9,-51 L 21,-51 L 21,-39 z
M 69,-39 L 69,-51 L 81,-51 L 81,-39 z
M 114,-39 L 114,-51 L 126,-51 L 126,-39 z
M 144,-39 L 144,-51 L 156,-51 L 156,-39 z
M 39,-39 L 39,-51 L 51,-51 L 51,-39 z
M 99,-39 L 99,-51 L 111,-51 L 111,-39 z
M 84,-39 L 84,-51 L 96,-51 L 96,-39 z
M 129,-39 L 129,-51 L 141,-51 L 141,-39 z
M 114,-24 L 114,-36 L 126,-36 L 126,-24 z
M 69,-24 L 69,-36 L 81,-36 L 81,-24 z
M 84,-24 L 84,-36 L 96,-36 L 96,-24 z
M 39,-24 L 39,-36 L 51,-36 L 51,-24 z
M 99,-24 L 99,-36 L 111,-36 L 111,-24 z
M 9,-24 L 9,-36 L 21,-36 L 21,-24 z
M 24,-24 L 24,-36 L 36,-36 L 36,-24 z
M 54,-24 L 54,-36 L 66,-36 L 66,-24 z
M 129,-24 L 129,-36 L 141,-36 L 141,-24 z
M 144,-24 L 144,-36 L 156,-36 L 156,-24 z
M 129,-9 L 129,-21 L 141,-21 L 141,-9 z
M 24,-9 L 24,-21 L 36,-21 L 36,-9 z
M 114,-9 L 114,-21 L 126,-21 L 126,-9 z
M 54,-9 L 54,-21 L 66,-21 L 66,-9 z
M 39,-9 L 39,-21 L 51,-21 L 51,-9 z
M 84,-9 L 84,-21 L 96,-21 L 96,-9 z
M 69,-9 L 69,-21 L 81,-21 L 81,-9 z
M 99,-9 L 99,-21 L 111,-21 L 111,-9 z
M 149.828,-13.2584 L 149.659,-13.2836 L 149.492,-13.3253 L 149.33,-13.3832 L 149.175,-13.4566 L 149.028,-13.5449
 L 148.89,-13.6472 L 148.763,-13.7626 L 148.647,-13.8898 L 148.545,-14.0277 L 148.457,-14.175 L 148.383,-14.3303
 L 148.325,-14.492 L 148.284,-14.6586 L 148.258,-14.8285 L 148.25,-15 L 148.258,-15.1715 L 148.284,-15.3414
 L 148.325,-15.508 L 148.383,-15.6697 L 148.457,-15.8249 L 148.545,-15.9722 L 148.647,-16.1102 L 148.763,-16.2374
 L 148.89,-16.3528 L 149.028,-16.4551 L 149.175,-16.5434 L 149.33,-16.6168 L 149.492,-16.6746 L 149.659,-16.7164
 L 149.828,-16.7416 L 150,-16.75 L 150.172,-16.7416 L 150.341,-16.7164 L 150.508,-16.6746 L 150.67,-16.6168
 L 150.825,-16.5434 L 150.972,-16.4551 L 151.11,-16.3528 L 151.237,-16.2374 L 151.353,-16.1102 L 151.455,-15.9722
 L 151.543,-15.8249 L 151.617,-15.6697 L 151.675,-15.508 L 151.716,-15.3414 L 151.742,-15.1715 L 151.75,-15
 L 151.742,-14.8285 L 151.716,-14.6586 L 151.675,-14.492 L 151.617,-14.3303 L 151.543,-14.175 L 151.455,-14.0277
 L 151.353,-13.8898 L 151.237,-13.7626 L 151.11,-13.6472 L 150.972,-13.5449 L 150.825,-13.4566 L 150.67,-13.3832
 L 150.508,-13.3253 L 150.341,-13.2836 L 150.172,-13.2584 L 150,-13.25 z
M 14.8285,-13.2584 L 14.6586,-13.2836 L 14.492,-13.3253 L 14.3303,-13.3832 L 14.175,-13.4566 L 14.0277,-13.5449
 L 13.8898,-13.6472 L 13.7626,-13.7626 L 13.6472,-13.8898 L 13.5449,-14.0277 L 13.4566,-14.175 L 13.3832,-14.3303
 L 13.3253,-14.492 L 13.2836,-14.6586 L 13.2584,-14.8285 L 13.25,-15 L 13.2584,-15.1715 L 13.2836,-15.3414
 L 13.3253,-15.508 L 13.3832,-15.6697 L 13.4566,-15.8249 L 13.5449,-15.9722 L 13.6472,-16.1102 L 13.7626,-16.2374
 L 13.8898,-16.3528 L 14.0277,-16.4551 L 14.175,-16.5434 L 14.3303,-16.6168 L 14.492,-16.6746 L 14.6586,-16.7164
 L 14.8285,-16.7416 L 15,-16.75 L 15.1715,-16.7416 L 15.3414,-16.7164 L 15.508,-16.6746 L 15.6697,-16.6168
 L 15.8249,-16.5434 L 15.9722,-16.4551 L 16.1102,-16.3528 L 16.2374,-16.2374 L 16.3528,-16.1102 L 16.4551,-15.9722
 L 16.5434,-15.8249 L 16.6168,-15.6697 L 16.6746,-15.508 L 16.7164,-15.3414 L 16.7416,-15.1715 L 16.75,-15
 L 16.7416,-14.8285 L 16.7164,-14.6586 L 16.6746,-14.492 L 16.6168,-14.3303 L 16.5434,-14.175 L 16.4551,-14.0277
 L 16.3528,-13.8898 L 16.2374,-13.7626 L 16.1102,-13.6472 L 15.9722,-13.5449 L 15.8249,-13.4566 L 15.6697,-13.3832
 L 15.508,-13.3253 L 15.3414,-13.2836 L 15.1715,-13.2584 L 15,-13.25 z
M 497,-165 L 332,-165 L 332,-0 L 497,-0 z
M 481.828,-148.258 L 481.659,-148.284 L 481.492,-148.325 L 481.33,-148.383 L 481.175,-148.457 L 481.028,-148.545
 L 480.89,-148.647 L 480.763,-148.763 L 480.647,-148.89 L 480.545,-149.028 L 480.457,-149.175 L 480.383,-149.33
 L 480.325,-149.492 L 480.284,-149.659 L 480.258,-149.828 L 480.25,-150 L 480.258,-150.172 L 480.284,-150.341
 L 480.325,-150.508 L 480.383,-150.67 L 480.457,-150.825 L 480.545,-150.972 L 480.647,-151.11 L 480.763,-151.237
 L 480.89,-151.353 L 481.028,-151.455 L 481.175,-151.543 L 481.33,-151.617 L 481.492,-151.675 L 481.659,-151.716
 L 481.828,-151.742 L 482,-151.75 L 482.172,-151.742 L 482.341,-151.716 L 482.508,-151.675 L 482.67,-151.617
 L 482.825,-151.543 L 482.972,-151.455 L 483.11,-151.353 L 483.237,-151.237 L 483.353,-151.11 L 483.455,-150.972
 L 483.543,-150.825 L 483.617,-150.67 L 483.675,-150.508 L 483.716,-150.341 L 483.742,-150.172 L 483.75,-150
 L 483.742,-149.828 L 483.716,-149.659 L 483.675,-149.492 L 483.617,-149.33 L 483.543,-149.175 L 483.455,-149.028
 L 483.353,-148.89 L 483.237,-148.763 L 483.11,-148.647 L 482.972,-148.545 L 482.825,-148.457 L 482.67,-148.383
 L 482.508,-148.325 L 482.341,-148.284 L 482.172,-148.258 L 482,-148.25 z
M 346.828,-148.258 L 346.659,-148.284 L 346.492,-148.325 L 346.33,-148.383 L 346.175,-148.457 L 346.028,-148.545
 L 345.89,-148.647 L 345.763,-148.763 L 345.647,-148.89 L 345.545,-149.028 L 345.457,-149.175 L 345.383,-149.33
 L 345.325,-149.492 L 345.284,-149.659 L 345.258,-149.828 L 345.25,-150 L 345.258,-150.172 L 345.284,-150.341
 L 345.325,-150.508 L 345.383,-150.67 L 345.457,-150.825 L 345.545,-150.972 L 345.647,-151.11 L 345.763,-151.237
 L 345.89,-151.353 L 346.028,-151.455 L 346.175,-151.543 L 346.33,-151.617 L 346.492,-151.675 L 346.659,-151.716
 L 346.828,-151.742 L 347,-151.75 L 347.172,-151.742 L 347.341,-151.716 L 347.508,-151.675 L 347.67,-151.617
 L 347.825,-151.543 L 347.972,-151.455 L 348.11,-151.353 L 348.237,-151.237 L 348.353,-151.11 L 348.455,-150.972
 L 348.543,-150.825 L 348.617,-150.67 L 348.675,-150.508 L 348.716,-150.341 L 348.742,-150.172 L 348.75,-150
 L 348.742,-149.828 L 348.716,-149.659 L 348.675,-149.492 L 348.617,-149.33 L 348.543,-149.175 L 348.455,-149.028
 L 348.353,-148.89 L 348.237,-148.763 L 348.11,-148.647 L 347.972,-148.545 L 347.825,-148.457 L 347.67,-148.383
 L 347.508,-148.325 L 347.341,-148.284 L 347.172,-148.258 L 347,-148.25 z
M 346.828,-13.2584 L 346.659,-13.2836 L 346.492,-13.3253 L 346.33,-13.3832 L 346.175,-13.4566 L 346.028,-13.5449
 L 345.89,-13.6472 L 345.763,-13.7626 L 345.647,-13.8898 L 345.545,-14.0277 L 345.457,-14.175 L 345.383,-14.3303
 L 345.325,-14.492 L 345.284,-14.6586 L 345.258,-14.8285 L 345.25,-15 L 345.258,-15.1715 L 345.284,-15.3414
 L 345.325,-15.508 L 345.383,-15.6697 L 345.457,-15.8249 L 345.545,-15.9722 L 345.647,-16.1102 L 345.763,-16.2374
 L 345.89,-16.3528 L 346.028,-16.4551 L 346.175,-16.5434 L 346.33,-16.6168 L 346.492,-16.6746 L 346.659,-16.7164
 L 346.828,-16.7416 L 347,-16.75 L 347.172,-16.7416 L 347.341,-16.7164 L 347.508,-16.6746 L 347.67,-16.6168
 L 347.825,-16.5434 L 347.972,-16.4551 L 348.11,-16.3528 L 348.237,-16.2374 L 348.353,-16.1102 L 348.455,-15.9722
 L 348.543,-15.8249 L 348.617,-15.6697 L 348.675,-15.508 L 348.716,-15.3414 L 348.742,-15.1715 L 348.75,-15
 L 348.742,-14.8285 L 348.716,-14.6586 L 348.675,-14.492 L 348.617,-14.3303 L 348.543,-14.175 L 348.455,-14.0277
 L 348.353,-13.8898 L 348.237,-13.7626 L 348.11,-13.6472 L 347.972,-13.5449 L 347.825,-13.4566 L 347.67,-13.3832
 L 347.508,-13.3253 L 347.341,-13.2836 L 347.172,-13.2584 L 347,-13.25 z
M 481.828,-13.2584 L 481.659,-13.2836 L 481.492,-13.3253 L 481.33,-13.3832 L 481.175,-13.4566 L 481.028,-13.5449
 L 480.89,-13.6472 L 480.763,-13.7626 L 480.647,-13.8898 L 480.545,-14.0277 L 480.457,-14.175 L 480.383,-14.3303
 L 480.325,-14.492 L 480.284,-14.6586 L 480.258,-14.8285 L 480.25,-15 L 480.258,-15.1715 L 480.284,-15.3414
 L 480.325,-15.508 L 480.383,-15.6697 L 480.457,-15.8249 L 480.545,-15.9722 L 480.647,-16.1102 L 480.763,-16.2374
 L 480.89,-16.3528 L 481.028,-16.4551 L 481.175,-16.5434 L 481.33,-16.6168 L 481.492,-16.6746 L 481.659,-16.7164
 L 481.828,-16.7416 L 482,-16.75 L 482.172,-16.7416 L 482.341,-16.7164 L 482.508,-16.6746 L 482.67,-16.6168
 L 482.825,-16.5434 L 482.972,-16.4551 L 483.11,-16.3528 L 483.237,-16.2374 L 483.353,-16.1102 L 483.455,-15.9722
 L 483.543,-15.8249 L 483.617,-15.6697 L 483.675,-15.508 L 483.716,-15.3414 L 483.742,-15.1715 L 483.75,-15
 L 483.742,-14.8285 L 483.716,-14.6586 L 483.675,-14.492 L 483.617,-14.3303 L 483.543,-14.175 L 483.455,-14.0277
 L 483.353,-13.8898 L 483.237,-13.7626 L 483.11,-13.6472 L 482.972,-13.5449 L 482.825,-13.4566 L 482.67,-13.3832
 L 482.508,-13.3253 L 482.341,-13.2836 L 482.172,-13.2584 L 482,-13.25 z
M 331,-165 L 166,-165 L 166,-0 L 331,-0 z
M 190,-144 L 190,-156 L 202,-156 L 202,-144 z
M 205,-144 L 205,-156 L 217,-156 L 217,-144 z
M 220,-144 L 220,-156 L 232,-156 L 232,-144 z
M 235,-144 L 235,-156 L 247,-156 L 247,-144 z
M 265,-144 L 265,-156 L 277,-156 L 277,-144 z
M 280,-144 L 280,-156 L 292,-156 L 292,-144 z
M 295,-144 L 295,-156 L 307,-156 L 307,-144 z
M 250,-144 L 250,-156 L 262,-156 L 262,-144 z
M 315.828,-148.258 L 315.659,-148.284 L 315.492,-148.325 L 315.33,-148.383 L 315.175,-148.457 L 315.028,-148.545
 L 314.89,-148.647 L 314.763,-148.763 L 314.647,-148.89 L 314.545,-149.028 L 314.457,-149.175 L 314.383,-149.33
 L 314.325,-149.492 L 314.284,-149.659 L 314.258,-149.828 L 314.25,-150 L 314.258,-150.172 L 314.284,-150.341
 L 314.325,-150.508 L 314.383,-150.67 L 314.457,-150.825 L 314.545,-150.972 L 314.647,-151.11 L 314.763,-151.237
 L 314.89,-151.353 L 315.028,-151.455 L 315.175,-151.543 L 315.33,-151.617 L 315.492,-151.675 L 315.659,-151.716
 L 315.828,-151.742 L 316,-151.75 L 316.172,-151.742 L 316.341,-151.716 L 316.508,-151.675 L 316.67,-151.617
 L 316.825,-151.543 L 316.972,-151.455 L 317.11,-151.353 L 317.237,-151.237 L 317.353,-151.11 L 317.455,-150.972
 L 317.543,-150.825 L 317.617,-150.67 L 317.675,-150.508 L 317.716,-150.341 L 317.742,-150.172 L 317.75,-150
 L 317.742,-149.828 L 317.716,-149.659 L 317.675,-149.492 L 317.617,-149.33 L 317.543,-149.175 L 317.455,-149.028
 L 317.353,-148.89 L 317.237,-148.763 L 317.11,-148.647 L 316.972,-148.545 L 316.825,-148.457 L 316.67,-148.383
 L 316.508,-148.325 L 316.341,-148.284 L 316.172,-148.258 L 316,-148.25 z
M 180.828,-148.258 L 180.659,-148.284 L 180.492,-148.325 L 180.33,-148.383 L 180.175,-148.457 L 180.028,-148.545
 L 179.89,-148.647 L 179.763,-148.763 L 179.647,-148.89 L 179.545,-149.028 L 179.457,-149.175 L 179.383,-149.33
 L 179.325,-149.492 L 179.284,-149.659 L 179.258,-149.828 L 179.25,-150 L 179.258,-150.172 L 179.284,-150.341
 L 179.325,-150.508 L 179.383,-150.67 L 179.457,-150.825 L 179.545,-150.972 L 179.647,-151.11 L 179.763,-151.237
 L 179.89,-151.353 L 180.028,-151.455 L 180.175,-151.543 L 180.33,-151.617 L 180.492,-151.675 L 180.659,-151.716
 L 180.828,-151.742 L 181,-151.75 L 181.172,-151.742 L 181.341,-151.716 L 181.508,-151.675 L 181.67,-151.617
 L 181.825,-151.543 L 181.972,-151.455 L 182.11,-151.353 L 182.237,-151.237 L 182.353,-151.11 L 182.455,-150.972
 L 182.543,-150.825 L 182.617,-150.67 L 182.675,-150.508 L 182.716,-150.341 L 182.742,-150.172 L 182.75,-150
 L 182.742,-149.828 L 182.716,-149.659 L 182.675,-149.492 L 182.617,-149.33 L 182.543,-149.175 L 182.455,-149.028
 L 182.353,-148.89 L 182.237,-148.763 L 182.11,-148.647 L 181.972,-148.545 L 181.825,-148.457 L 181.67,-148.383
 L 181.508,-148.325 L 181.341,-148.284 L 181.172,-148.258 L 181,-148.25 z
M 190,-129 L 190,-141 L 202,-141 L 202,-129 z
M 205,-129 L 205,-141 L 217,-141 L 217,-129 z
M 235,-129 L 235,-141 L 247,-141 L 247,-129 z
M 250,-129 L 250,-141 L 262,-141 L 262,-129 z
M 220,-129 L 220,-141 L 232,-141 L 232,-129 z
M 265,-129 L 265,-141 L 277,-141 L 277,-129 z
M 280,-129 L 280,-141 L 292,-141 L 292,-129 z
M 295,-129 L 295,-141 L 307,-141 L 307,-129 z
M 310,-129 L 310,-141 L 322,-141 L 322,-129 z
M 175,-129 L 175,-141 L 187,-141 L 187,-129 z
M 205,-114 L 205,-126 L 217,-126 L 217,-114 z
M 190,-114 L 190,-126 L 202,-126 L 202,-114 z
M 310,-114 L 310,-126 L 322,-126 L 322,-114 z
M 295,-114 L 295,-126 L 307,-126 L 307,-114 z
M 175,-114 L 175,-126 L 187,-126 L 187,-114 z
M 235,-114 L 235,-126 L 247,-126 L 247,-114 z
M 250,-114 L 250,-126 L 262,-126 L 262,-114 z
M 220,-114 L 220,-126 L 232,-126 L 232,-114 z
M 265,-114 L 265,-126 L 277,-126 L 277,-114 z
M 280,-114 L 280,-126 L 292,-126 L 292,-114 z
M 190,-99 L 190,-111 L 202,-111 L 202,-99 z
M 310,-99 L 310,-111 L 322,-111 L 322,-99 z
M 295,-99 L 295,-111 L 307,-111 L 307,-99 z
M 205,-99 L 205,-111 L 217,-111 L 217,-99 z
M 280,-99 L 280,-111 L 292,-111 L 292,-99 z
M 175,-99 L 175,-111 L 187,-111 L 187,-99 z
M 265,-99 L 265,-111 L 277,-111 L 277,-99 z
M 220,-99 L 220,-111 L 232,-111 L 232,-99 z
M 250,-99 L 250,-111 L 262,-111 L 262,-99 z
M 235,-99 L 235,-111 L 247,-111 L 247,-99 z
M 280,-84 L 280,-96 L 292,-96 L 292,-84 z
M 250,-84 L 250,-96 L 262,-96 L 262,-84 z
M 295,-84 L 295,-96 L 307,-96 L 307,-84 z
M 235,-84 L 235,-96 L 247,-96 L 247,-84 z
M 190,-84 L 190,-96 L 202,-96 L 202,-84 z
M 205,-84 L 205,-96 L 217,-96 L 217,-84 z
M 220,-84 L 220,-96 L 232,-96 L 232,-84 z
M 310,-84 L 310,-96 L 322,-96 L 322,-84 z
M 265,-84 L 265,-96 L 277,-96 L 277,-84 z
M 175,-84 L 175,-96 L 187,-96 L 187,-84 z
M 265,-69 L 265,-81 L 277,-81 L 277,-69 z
M 295,-69 L 295,-81 L 307,-81 L 307,-69 z
M 235,-69 L 235,-81 L 247,-81 L 247,-69 z
M 190,-69 L 190,-81 L 202,-81 L 202,-69 z
M 280,-69 L 280,-81 L 292,-81 L 292,-69 z
M 205,-69 L 205,-81 L 217,-81 L 217,-69 z
M 220,-69 L 220,-81 L 232,-81 L 232,-69 z
M 175,-69 L 175,-81 L 187,-81 L 187,-69 z
M 250,-69 L 250,-81 L 262,-81 L 262,-69 z
M 310,-69 L 310,-81 L 322,-81 L 322,-69 z
M 250,-54 L 250,-66 L 262,-66 L 262,-54 z
M 175,-54 L 175,-66 L 187,-66 L 187,-54 z
M 310,-54 L 310,-66 L 322,-66 L 322,-54 z
M 295,-54 L 295,-66 L 307,-66 L 307,-54 z
M 235,-54 L 235,-66 L 247,-66 L 247,-54 z
M 280,-54 L 280,-66 L 292,-66 L 292,-54 z
M 220,-54 L 220,-66 L 232,-66 L 232,-54 z
M 205,-54 L 205,-66 L 217,-66 L 217,-54 z
M 265,-54 L 265,-66 L 277,-66 L 277,-54 z
M 190,-54 L 190,-66 L 202,-66 L 202,-54 z
M 250,-39 L 250,-51 L 262,-51 L 262,-39 z
M 265,-39 L 265,-51 L 277,-51 L 277,-39 z
M 205,-39 L 205,-51 L 217,-51 L 217,-39 z
M 310,-39 L 310,-51 L 322,-51 L 322,-39 z
M 280,-39 L 280,-51 L 292,-51 L 292,-39 z
M 235,-39 L 235,-51 L 247,-51 L 247,-39 z
M 175,-39 L 175,-51 L 187,-51 L 187,-39 z
M 190,-39 L 190,-51 L 202,-51 L 202,-39 z
M 220,-39 L 220,-51 L 232,-51 L 232,-39 z
M 295,-39 L 295,-51 L 307,-51 L 307,-39 z
M 310,-24 L 310,-36 L 322,-36 L 322,-24 z
M 295,-24 L 295,-36 L 307,-36 L 307,-24 z
M 220,-24 L 220,-36 L 232,-36 L 232,-24 z
M 190,-24 L 190,-36 L 202,-36 L 202,-24 z
M 280,-24 L 280,-36 L 292,-36 L 292,-24 z
M 235,-24 L 235,-36 L 247,-36 L 247,-24 z
M 175,-24 L 175,-36 L 187,-36 L 187,-24 z
M 250,-24 L 250,-36 L 262,-36 L 262,-24 z
M 205,-24 L 205,-36 L 217,-36 L 217,-24 z
M 265,-24 L 265,-36 L 277,-36 L 277,-24 z
M 295,-9 L 295,-21 L 307,-21 L 307,-9 z
M 190,-9 L 190,-21 L 202,-21 L 202,-9 z
M 280,-9 L 280,-21 L 292,-21 L 292,-9 z
M 220,-9 L 220,-21 L 232,-21 L 232,-9 z
M 205,-9 L 205,-21 L 217,-21 L 217,-9 z
M 250,-9 L 250,-21 L 262,-21 L 262,-9 z
M 235,-9 L 235,-21 L 247,-21 L 247,-9 z
M 265,-9 L 265,-21 L 277,-21 L 277,-9 z
M 315.828,-13.2584 L 315.659,-13.2836 L 315.492,-13.3253 L 315.33,-13.3832 L 315.175,-13.4566 L 315.028,-13.5449
 L 314.89,-13.6472 L 314.763,-13.7626 L 314.647,-13.8898 L 314.545,-14.0277 L 314.457,-14.175 L 314.383,-14.3303
 L 314.325,-14.492 L 314.284,-14.6586 L 314.258,-14.8285 L 314.25,-15 L 314.258,-15.1715 L 314.284,-15.3414
 L 314.325,-15.508 L 314.383,-15.6697 L 314.457,-15.8249 L 314.545,-15.9722 L 314.647,-16.1102 L 314.763,-16.2374
 L 314.89,-16.3528 L 315.028,-16.4551 L 315.175,-16.5434 L 315.33,-16.6168 L 315.492,-16.6746 L 315.659,-16.7164
 L 315.828,-16.7416 L 316,-16.75 L 316.172,-16.7416 L 316.341,-16.7164 L 316.508,-16.6746 L 316.67,-16.6168
 L 316.825,-16.5434 L 316.972,-16.4551 L 317.11,-16.3528 L 317.237,-16.2374 L 317.353,-16.1102 L 317.455,-15.9722
 L 317.543,-15.8249 L 317.617,-15.6697 L 317.675,-15.508 L 317.716,-15.3414 L 317.742,-15.1715 L 317.75,-15
 L 317.742,-14.8285 L 317.716,-14.6586 L 317.675,-14.492 L 317.617,-14.3303 L 317.543,-14.175 L 317.455,-14.0277
 L 317.353,-13.8898 L 317.237,-13.7626 L 317.11,-13.6472 L 316.972,-13.5449 L 316.825,-13.4566 L 316.67,-13.3832
 L 316.508,-13.3253 L 316.341,-13.2836 L 316.172,-13.2584 L 316,-13.25 z
M 180.828,-13.2584 L 180.659,-13.2836 L 180.492,-13.3253 L 180.33,-13.3832 L 180.175,-13.4566 L 180.028,-13.5449
 L 179.89,-13.6472 L 179.763,-13.7626 L 179.647,-13.8898 L 179.545,-14.0277 L 179.457,-14.175 L 179.383,-14.3303
 L 179.325,-14.492 L 179.284,-14.6586 L 179.258,-14.8285 L 179.25,-15 L 179.258,-15.1715 L 179.284,-15.3414
 L 179.325,-15.508 L 179.383,-15.6697 L 179.457,-15.8249 L 179.545,-15.9722 L 179.647,-16.1102 L 179.763,-16.2374
 L 179.89,-16.3528 L 180.028,-16.4551 L 180.175,-16.5434 L 180.33,-16.6168 L 180.492,-16.6746 L 180.659,-16.7164
 L 180.828,-16.7416 L 181,-16.75 L 181.172,-16.7416 L 181.341,-16.7164 L 181.508,-16.6746 L 181.67,-16.6168
 L 181.825,-16.5434 L 181.972,-16.4551 L 182.11,-16.3528 L 182.237,-16.2374 L 182.353,-16.1102 L 182.455,-15.9722
 L 182.543,-15.8249 L 182.617,-15.6697 L 182.675,-15.508 L 182.716,-15.3414 L 182.742,-15.1715 L 182.75,-15
 L 182.742,-14.8285 L 182.716,-14.6586 L 182.675,-14.492 L 182.617,-14.3303 L 182.543,-14.175 L 182.455,-14.0277
 L 182.353,-13.8898 L 182.237,-13.7626 L 182.11,-13.6472 L 181.972,-13.5449 L 181.825,-13.4566 L 181.67,-13.3832
 L 181.508,-13.3253 L 181.341,-13.2836 L 181.172,-13.2584 L 181,-13.25 z
" stroke="black" fill="lightgray" stroke-width="0.5"/>
</svg>
